<svg xmlns="http://www.w3.org/2000/svg" xml:space="preserve" width="606.90375" height="326.43866" viewBox="0 0 606.90372 326.43866"><defs><clipPath id="a" clipPathUnits="userSpaceOnUse"><path d="M0 595h842V0H0Z"/></clipPath><clipPath id="b" clipPathUnits="userSpaceOnUse"><path d="M639.453 270.083c-.762-.274-1.169-1.608-2.074-1.531-.775.049-1.203 1.884-1.982.496-.659.379-1.211.858-1.93 1.006-.8.184-.846-.338-1.339-.437h-.029a5.301 5.301 0 0 1-1.367.206c-3.13.125-5.831-1.431-5.831-1.431v-.009c-.224-.084-.37-.315-.384-.791-.475-.026-.975-.034-1.451-.042a172.936 172.936 0 0 1-.286-5.179c-.012-1.174-.459-1.91-.459-3.046v-2.041c0-1.573.43-5.204.43-5.204s.29-.634.29-1.741c0-1.107.126-1.566 0-2.525-.067-.391-.089-.333-.122-.278-.029.086-.029.169-.029-1.139 0-1.414-.371-2.971.466-4.094.484-.653.901-.308 1.068-1.503.047-.302.047-.521.022-.723l-.05-.008s-.017-.135-.034-.329c0-.025-.012-.042-.012-.062h.012c-.037-.337-.059-.787-.083-1.137a2.018 2.018 0 0 0-.086-.264c-.412-1.049-1.303-1.785-1.657-2.853-.29-.875-.631-2.137-.643-3.067-.009-1.124.567-2.074.567-3.168 0-1.115.291-.951 0-1.582-.29-.64-.567-1.733-.567-2.373v-3.164c0-.467.706-1.884.567-2.364-.109-.37-.315-.875-.383-2.285.03.047.068.093.093.148-.08-2.197.282-4.414.475-5.335-.046-.152-.08-.408-.126-.821a6.636 6.636 0 0 1 0-.997l.026.008c0-.302.007-.622.007-.967l-.033-.025c0-.223.026-.438.046-.664 0-.262.009-.53.009-.742 0-.075.025-.126.038-.185a6.577 6.577 0 0 0-.03-.951c-.104-.74-.522-1.341-.677-2.086-.337-1.716.753-2.339.985-3.921.299-2.171-.122-4.59-.077-6.761.047-.761-.214-1.729-.075-2.47.03-.193.934-2.087 1.056-1.708-.493-1.549.623-1.549 1.573-1.515.055-1.362.392-3.348 2-3.289.588.008.748.975 1.438.975.594-.008.61-.82 1.299-.782.317.035 1.334.836 1.856.968.463.118 1.489.252 1.935.167 1.397-.251 2.058-1.164 3.715-1.1 1.41.041 3.046.794 4.473.411.968-.269 1.451-1.603 2.671.075.194-.298.668-.538.821-.882.37.31.77.639 1.127.967.829-1.75 1.132-.244 2.205.033.354.068.707-.033 1.072-.147.325-.093.678-.177 1.04-.139.774.085 1.434.64 2.23.464.686-.156 2.01-1.591 2.474-.431.104.262.058.498-.064.72l.501-.029.543.106.976-.232.652-.122 1.287-.597 1.183.475 1.098.122.639.354.43.365-.169.463.092-.038 1.073-1.089.522-.152s.4.303.799.934c.401.639.143.639.143 1.43 0 .783-.542 1.095-.542 1.095s0 .95.138 2.532c.047.639.068.985.077 1.275h-.077c.615 1.821.505 3.21.367 3.93a.35.35 0 0 0 .046-.093c-.009.106-.009.248-.009.416v2.828c0 1.43.531 1.905.792 3.164.017.008.017.034.017.041v.733c-.148.353-.547.362-.809 1.127-.404 1.111.531 1.898.531 2.987 0 .219-.013.438-.03.648.075.093.207.303.308.615v1.303c-.077.27-.187.564-.363.897-.055.177-.101.357-.159.576.138.707-1.212 5.709-1.212 5.709-.215.513-.463 1.057-.685 1.649-.804 2.012-.047 2.966.47 4.834.236.868.215 1.733.105 2.604.064 1.503-.575 4.944-.575 4.944l.377.211c-.214-.06-.387-.143-.377-.211-.283 1.325.453 1.658.53 3.064.138 2.339.445 4.577-.279 6.722a9.8 9.8 0 0 1 .009.497c.117.665-.021 1.683-.26 2.684-.068.278-.123.538-.19.799l-.017.018.109.016a39.948 39.948 0 0 0-.248 2.368l-.03-.16h-.029l-.017-.046-.055.144c0 .033-.008.05-.008.062v-.012l-1.119 3.324s.018.033.018.075c0 .03 0 .043.011.051h-.011v.063l.046.316h-.027l.009.038h.03c0 .083 0 .146.007.223h.026c.022.058-.017.075-.017.075.03.068.046.13.064.194h-.034l.016.113h-.016c0 .013 0 .004.009.004 0 0 .007 0 .025.018.029.084-.018.133-.018.133 0 .098.06.144.077.19h-.038l.021.139h-.021c-.008.11.054.194.067.227h-.029l.016.312a5.181 5.181 0 0 0-.185-.026c.018.547.037 1.098.076 1.506.009.034.016.085.034.105.075-.02.068-.037.135-.074l.033.18h-.093l.022.051c-.055.059-.055.126-.084.235.122.698.138.492.201 2.457.03.025.046.025.067.03v.037c.047-.017.047-.067.047-.067h.055c-.055.261-.109.505-.156.744 0 1.465-.319 3.076-.568 4.145l.08.029-.017-.113c.047.016.122.025.186.049a8.864 8.864 0 0 1-1.001 2.736c-.031 0-.061-.009-.077-.026-.012.026 0 .081-.046.085l-.012-.033-.093-.052.013.085a.608.608 0 0 0-.198.417h-.063v.071c-.029.075-.077.104-.106.151-.009.039-.009.085-.009.117h-.055l.01.076h-.075c-.026.059-.048.126-.086.19-.016.02-.046.029-.074.046l.019.067h-.046l.039.147c-.012.039-.039-.003-.039.132h-.066l.013.066c-.187.009-.114.063-.207.144-.046.012-.084.029-.114.042-.017.016-.017.05-.017.071h-.093l.009.047h-.055v.046h-.058v.021h-.063l.008.046h-.047v.038h-.071l.016.033h-.058v.043c-.046.008-.1.041-.155.063l.008.054c-.101.101 0 .131-.193.143-.021-.042-.046-.084-.046-.113a.26.26 0 0 1-.115.029l.009.042h-.075v.042h-.08v.043c-.06.037-.135-.043-.186-.043v.08c-.042-.016-.075-.02-.135-.037l.013.058h-.093c-.012-.058-.046-.135-.058-.193-.03.058 0 .084-.156.092a.574.574 0 0 0-.047-.113.243.243 0 0 1-.121.029l.009.042h-.085v.042h-.063l.016.043c-.074.037-.151-.043-.184-.043-.013.018-.022.06-.029.08-.048-.016-.085-.02-.122-.037l.012.058h-.089c-.007-.021-.033-.058-.033-.109l-.029.008c-.018-.042-.031-.084-.047-.113a.21.21 0 0 1-.122.029v.042h-.084v.042h-.046v.043c-.073.037-.139-.043-.177-.043-.017.018-.017.06-.029.08-.034-.016-.093-.02-.127-.037v.058h-.075c-.022-.058-.038-.135-.06-.193-.033.058-.008.084-.156.092-.016-.042-.028-.084-.045-.113a.23.23 0 0 1-.114.029v.042h-.092l.008.042h-.055v.043c-.075.037-.159-.043-.193-.043 0 .018-.013.06-.021.08-.037-.016-.085-.02-.114-.037v.058h-.093c0-.009 0-.021-.008-.05l-2.141.176-.867-.184-.055-.316-.681.417-.745.113-1.086.357-.756-.012c-1.208.442-2.625.438-3.93.416-.287 0-.586-.009-.854 0-.96 0-1.835.077-2.701.244-.791.169-1.566.653-2.234.653a.967.967 0 0 1-.396-.08m24.742-37.629c.262.101.581.201.497.31z"/></clipPath></defs><g clip-path="url(#a)" transform="matrix(1.33333 0 0 -1.33333 -281.527 493.417)"><path d="M0 0c.261-.619-.231-.358.69-.72C.244.109.813-.459 0 0m16.253 5.321c.492.013.921.031 1.384-.008.058.063.138.148.222.215-.47.4-.592.412-1.573.496 0-.235-.016-.441-.033-.703M.168 7.732c0 .068.009.152-.017.245-.664.222-1.35.454-2.014.689.159-.496.02-.496.866-.934.366 0 .745.013 1.165 0m-2.272-9.764c.308.08.644.172.952.197-.328.177-.661.32-.952.497a3.656 3.656 0 0 0 0-.694m-.109 4.56c.434-.353.248-.333 1.107-.475-.215.252-.459.467-.69.698a2.915 2.915 0 0 1-.417-.223M.102 6.571c-.073.168-.14.303-.211.438-.569.1-1.182.202-1.856.299.337-.871.459-.569.674-1.628.34 0 .66-.009.937 0 .215.782-.26.323.456.669 0 .071.02.138 0 .222m-162.037 51.757c-.26.135-.538.261-.799.396.375-.412.046-.194.799-.396M5.364 5.806c.308-.102.589-.177.875-.278.022.316.022.652.009.921-.215.038-.43.03-.661.013-.092-.219-.13-.45-.223-.656M-4.851-1.961c.021-.324 0-.605 0-.921 1.397.147 1.94.584 2.327 1.763-.287-.018-.64.024-.909.024a64.674 64.674 0 0 0-1.418-.866M1.502 7.9c-.227.009-.441.022-.689.038.193-.222.306-.466.445-.707.484.569.138.093.244.669m2.747-.95c-.029-.362-.029-.753-.046-1.144.155.007.295.02.446-.017.185.084.341.151.455.232-.009.159 0 .29-.026.466-.227.152-.568.316-.829.463m-2.73 1.615c.008.27.008.489.017.707-.522.101-1.031.177-1.611.278.441-.606.727-.732 1.594-.985m8.01 2.151c-.058-1.742.093-2.597 1.061-3.661 1.059 1.368.084 1.999-.152 3.631-.294.03-.601.03-.909.03m3.993-5.327c.329-.021.615.017.921-.03v.716c-.306.021-.592-.009-.9 0 .009-.227-.021-.455-.021-.686m-22.45-20.964c-.16-.126-.215-.261-.281-.417.277-.097.614-.159.896-.248.008.219-.008.463.054.656a6.198 6.198 0 0 1-.669.009m1.544 8.868c-.336.018-.66.034-.968.018.447-.456.093-.237.914-.463-.008.164.025.294.054.445m.206-9.36a2.8 2.8 0 0 1-.66-.186c.53-.013 1.068-.02 1.573-.062.017.285-.007.63.038.95-.222-.004-.475-.013-.727-.004-.029-.248-.102-.438-.224-.698m1.099 8.195c-.009.131 0 .29.016.476-.324-.009-.614.007-.92.007.45-.492.075-.268.904-.483m-5.907-10.598c.337.026.627-.016.925-.016.055.39.119.782.252 1.152-.428 0-.795.009-1.177.017a13.43 13.43 0 0 0 0-1.153m27.381 37.25c.016.157 0 .312 0 .447-.279.025-.632.033-.906.042.459-.455.076-.248.906-.489M-6.063 4.198c.291-.008.615-.012.905-.02-.017.357 0 .769 0 1.135-.261.013-.593.008-.905.021.03-.374-.016-.74 0-1.136m-.016-10.942c-.308.016-.598 0-.892.029.433-.479.092-.235.892-.467-.009.147 0 .298 0 .438m-.029 9.798c.122-.21.319-.463.445-.699.484.582.135.093.244.699a4.064 4.064 0 0 0-.689 0m1.712-17.098c.298-.101.588-.16.917-.253-.19.211-.467.472-.682.699-.055-.16-.168-.286-.235-.446m.16 7.262c-.505-.661.184-.37.929-.476-.025.139-.008.299-.025.446-.315 0-.576 0-.904.03m-1.544 2.12c.122.126.268.273.454.404 0 .084.013.168 0 .244-.332.008-.614.008-.904.017.096-.228.264-.446.45-.665m-1.128 2.743c0-.551-.017-1.064-.008-1.595.298.009.651-.012.904-.062.24.177.471.31.707.479-.067.29-.134.589-.236.926a14.73 14.73 0 0 0-1.367.252m-137.037-77.972c-.286.139-.547.29-.807.416-.021-.126-.039-.26-.021-.395-.194-.075-.417-.097-.568-.177.458-.02.967-.02 1.417-.02-.021.071-.021.122-.021.176M-16.332 26.067c.062.034.155.119.231.19-.315.184-.614.315-.909.483-.088-.222-.168-.475-.261-.673.341-.033.64-.016.939 0m-4.17-2.204c.333.008.64-.034.931-.034-.329.993.029.547-.897.955a3.687 3.687 0 0 0-.034-.921m-28.982-38.366c.618.585.474 1.751.066 2.954 2.73-1.465-.206-3.774.729-6.853 1.199-3.678 3.193-6.336 7.063-7.898-.219-.252-.492-.45-.677-.66 1.022-.496.938.361 1.304-.959.997.261.598.155 1.161.66.042-.879.097-1.826.16-2.756.336.017.615.009.934-.016.202 1.245.08.891.947 1.371.85-1.023 1.788-.901 2.693-1.914 1.947.08 6.786-2.04 7.32.24 1.443-.379 1.518-.576 3.425-.53-.026.113-.026.197-.03.299 2.015-1.688 4.368-1.919 8.103-1.482 1.182-5.448 12.508-2.47 16.837-2.208 3.315.197 8.229-.51 11.238.564 1.072-.177 2.149-.447 2.226-.673-.51-.177.336-.758.622-1.221 2.676-.299 7.834-.875 7.724-.808 1.292.034 10.177.808 11.238 1.645.568.253.551-.13.466.43 1.17.938 4.078 1.636 6.152 2.52-.017.522.849.589.849 1.102 2.293-.66 4.827 3.038 5.563 5.823-.215.177-.476.311-.636.445 2.486.825 4.481 8.483 3.429 12.012.556.753 1.216 1.498 1.813 2.264-.428 1.535-.66 3.437-1.46 4.101-.038 1.578.261 1.861 1.36 2.277-.653 1.376-.614 4.388-.514 7.274-.521-.059-1.06-.135-1.595-.177 1.28 3.492 1.027 9.214-1.376 10.279.115.483.177.428.455 1.358-.429.244-.875.455-1.337.699.828 1.599-.813 4.35-1.242 7.076-.26 1.603.867 3.538.828 6.156-1.812.718-3.255 3.651-3.301 5.986-1.019-.042-1.204-.155-1.873-.454-.198.631-.4 1.245-.615 1.826-1.135.37-1.657.084-2.499-.37a7.788 7.788 0 0 0-.184 1.136c-1.628.891-2.794.798-4.784 1.022-.097.164-.143.307-.236.425.354.622.631 1.228.951 1.817-.278.009-.597 0-.934.017-.492-1.229-.538-.846-.492-2.242-.854.421-1.089.988-1.283 2.065-.867-.445-.623-.147-.728-1.346-.215 0-.454-.008-.69.008.122 1.33.353 1.38.736 2.264 0 .063 0 .135.017.219-.707-.051-.614.302-.707-.438-.66.32-1.33.648-2.01.951-.076-.084-.186-.147-.261-.253.352-.5.445-.361.66-1.135-.156-.387-.308-.741-.463-1.136-1.106.366-.366.917-2.503.992-.089-.134-.151-.336-.227-.449.012-.169-.009-.317 0-.501.707-.038.534.008 1.35.239.013-.323 0-.622.013-.904-.089-.084-.16-.16-.244-.223-3.239.766-5.251 1.712-8.12 2.785-.093-.071-.152-.084-.261-.156.017.085.017.194.017.24-.438.177-.875.316-1.413.509-.215-1.178-.308-1.059-1.136-1.573-.585.782-1.166 1.565-1.751 2.297-.883-.513-1.333-.463-2.07-1.094-.462.43-.909.808-1.35 1.145-1.136-1.061-.893-.749-2.55-1.052.244-.253.476-.472.691-.698-.7-.203-1.389-.421-2.071-.64.228-.328.488-.627.66-.926a5.54 5.54 0 0 0-.016-.689c-.438.412-.168 0-.438.698-1.965-.135-1.775-.235-2.969-1.305-.018-.151-.018-.286-.018-.445-.159.31-.29.58-.458.888-.984-.333-1.948-.703-2.933-1.065-.038-.463-.029-.918-.063-1.355-.383 0-.757.017-1.165.017.261.875.215.568-.408 1.127-.913-.572-.775-.361-.897-1.303-1.872-.186-2.011-.261-3.024.706-.321-.13-.737-.307-1.119-.438.475-.462.92-.925 1.35-1.396-.24-1.389-.661-1.195-1.166-2.246-.753-.043-1.518-.11-2.271-.161.475-.967.282-.563 1.35-.526-.029-.261-.016-.56-.046-.866-2.588.269-3.698-2.701-5.71-2.167-1.059-1.103-4.299-3.879-3.79-6.285-.677.226-1.338.445-2.066.707.021-.375.038-.749.021-1.15-1.241.308-.933.148-2.515.038.37 1.86.921 2.365.075 3.897-.013.05.025.142.025.201 1.372-.286.821-.513 2.011-.934-.024.429 0 .909.038 1.364 2.807-.851 4.73 4.139 7.805 3.256.454 1.026.727 1.043 1.649 2.028-.008.226-.03.463.017.673-1.237-.075-3.109-.615-4.792-1.431v-.075c-.051.008-.076.008-.097.016-2.095-1.018-3.938-2.465-4.123-4.046-.597.386-.404.432-1.136.756.416.665.5.387.69 1.326-1.103-.27-.842-.484-2.255-.627 0-.434-.046-.892-.021-1.371-1.607.218-1.3.286-2.701.062-.047-.467-.043-.904-.047-1.375.392.008.749.008 1.128-.013-.905-.597-1.245-.16-2.52.037-.177-.756-.319-1.48-.488-2.254-.378.169-.779.278-1.136.455-.277-.749-.202-.241.43-1.128-.337.142-.771.319-1.154.463-3.42-2.975-3.853-6.223-7.005-9.176-.652-.539-.286-.282-1.115.029-.168-.727-.399-.311.24-.715-.147-.236-2.848-3.45-3.277-4.026.185-.257.412-.45.598-.716.046-.046.016-.122.025-.197-1.313.122-1.237.505-1.376-1.128a2.813 2.813 0 0 1-.446.017c-.19.366-.429.795-.665 1.14.572 2.634 4.287 5.314 3.837 8.368.896.03.358.421.867-.508 1.994.82 1.026 2.435 2.116 3.638-.446.303-1.01.206-2.271.261.016-.471.024-.908 0-1.358-.383.091-.784.176-1.15.239.581-4.67-7.009-10.501-6.44-14.203a10.456 10.456 0 0 0-1.372-.173c.122-1.863-.799-3.95-2.596-4.539.37-1.027.698-1.112.429-2.273 1.077.321.577-.193.892.917.4-.1.799-.21 1.182-.277-1.38-1.75-1.304-4.06-2.654-6.108.214-.228.459-.456.66-.699-.286-.109-.568-.299-.921-.429.888-.522 1.157-1.237.673-2.289-.476-.429-.627-.227-1.409-.404-.072-.009-.126-.009-.186-.009.468 2.693.151 5.441.186 9.535.366-.064.749-.148 1.119-.249-.493 1.826-1.077 4.598-.316 7.085a49.09 49.09 0 0 1-.193 1.838c-.871-.496-1.381-4.055-1.241-4.753-.308.083-.585.151-.906.244a97.668 97.668 0 0 0-.76-3.164c.997-.543.782-.833 1.341-1.65-.488-1.422-.98-2.844-1.456-4.304-.34-2.103.859-3.05-.091-5.457.68-1.043 1.274-1.691 2.457-2.318m33.181 9.117c.569.875 2.487 2.701 3.484 3.114-.206.807-.442 1.666-.644 2.499.454.008.939-.008 1.397-.008.029.559.029 1.059.046 1.615 1.052.202 2.104.395 3.21.605.021.165.152.295.19.438-.022.32-.144.61-.177.926-1.717.302-2.638-.135-4.371-.362-.072.354-.118.745-.173 1.144-.021.051 0 .152 0 .236.968.033 2.045.252 2.756 1.734.698-.405.361-.438 1.351-.707-.573 2.511.399 3.382.117 5.49.661-.416.4-.45 1.38-.707.375 1.052 1.321 1.687 2.074 2.44.674.492.051.248.922-.004.458.711.933 1.486 1.396 2.221 1.103.148 1.196 0 2.264-.268-.118 1.177.235.344-.438 1.161 1.212.673.968.723 1.885 1.338.118-.126.257-.186.425-.248.067-.148.16-.325.215-.468a6.116 6.116 0 0 1-.691-.42c-.084-.144-.147-.295-.256-.51.723-.146 12.004 3.135 12.84 3.648 1.039.555-.18.522 1.174.635-.227.274-.459.476-.69.711.597.248 1.246.438 1.843.649.382-.775.539-.556.635-1.819 1.132.153.737.421 1.406-.033 1.022.379 1.181.866 1.35 2.028.261 0 .509-.008.707-.034 0-.505-.03-1.043-.047-1.586 1.519-.277 1.566-.871 2.075.438.765-.354.887-.771 1.102-1.856-.682-.286-1.38-.581-2.041-.875.501-.37 1.023-.791 1.536-1.208a1.393 1.393 0 0 1-.215-.416c-.698-.21-1.396-.437-2.074-.639-.311.16-.614.328-.888.454.245 1.094.582.665.009 1.397-.071.248-.131.463-.211.698-.214 0-.428-.012-.689.008-.244-.815-.497-1.666-.766-2.473-.038-.008-.093-.008-.185-.017-.046.459-.114.913-.198 1.363-.539.139-1.051.325-1.582.489-.324-.7-.016-.27-.471-.7-.896-.5-.236-.058-1.371.266-.308-.441-.623-.888-.952-1.351-.016-1.051-.025-2.125-.045-3.155.281-.009.614-.021.929 0 .004.656.004 1.329.021 2.003l11.566-.896c.101 0 .177.008.239.02-.239-.345-.462-.635-.66-.942-.455-.008-.278-.227-.429.231-1.107-.39-.909-.853-1.889-1.291-.064-.013-.122 0-.248-.013.164.467.332.598.937 1.107-.016.097-.016.177.031.227-.068.101-.169.16-.237.261-1.207-.269-1.283-.652-1.375-1.355-.905.202-1.847.311-2.717.513-.031-.9-.051-1.842-.06-2.717 1.275.176.72.176 2.023-.055-.264-.997-.474-1.948-.735-2.971-1.019.122-.922.27-1.565-.168.353-.248.723-.467 1.115-.698-.026-.093-.026-.177-.026-.261-.539-.29-1.073-.568-1.611-.854 0-.21 0-.446.017-.711 1.334.345 1.38.559 2.932.437-.295.316-.601.611-.862.905.567 1.33 1.611 2.061 1.207 3.871.496-.101 1.052-.186 1.573-.278-.155.597-.277 1.237-.408 1.809 1.137.211.762.109 1.376.66.728-1.358 1.586-2.309 2.209-3.454.307.093.568.14.913.231.715.43.316 0 .484.662.114.222.26.445.429.652 1.935-4.524 4.127-9.681 6.816-14.688.829-1.636-1.014-4.186-.417-5.435-.766-.997-1.473-1.174-1.834-2.718-1.052.117-.917.261-1.612-.207.299-.055.623-.139.93-.214-1.144-.951-1.245-.138-1.405-1.788-2.983.265-7.749-3.311-9.647-3.951-2.499-.791-4.62.182-6.643-.748-2.007.042-2.104.471-3.379.95-.017-.286-.025-.589-.046-.879-1.351.959-4.144-.105-5.188.762-1.123.967-.382 1.51-2.473 1.876.248.155.463.324.707.429-.232.085-.459.185-.674.261-.155-.076-.315-.152-.463-.227.018-.139.14-.295.169-.472.139-.412.261-.479.677-1.136-.155.035-.252.017-.429.035-.866-.505-1.09-.085-2.259.277-.03-.48-.047-.926-.076-1.397-.058.008-.122.034-.185.034-.597.761-.336 1.414-.189 2.045-1.452.504-3.922.643-4.312.067-.241-.009-.476.025-.699 0 .059.379.176.762.244 1.161-1.582.177-2.549-.514-4.312-.147.29-.888-.063-.476.644-.939.075-.117.155-.294.231-.445-.539.088-1.09.193-1.591.286-.467-.468-.95-.918-1.434-1.363.782-.514 1.128.075 2.087-.261 1.005-.846.129-1.052.37-2.045-.997.135-.644.16-1.351-.438-.997.678-1.46 1.347-1.506 2.97-.467-.066-.934-.1-1.409-.193.29.589.505 1.208.748 1.822-.012.093 0 .148 0 .223-.42.067-.888.177-1.35.269-.059 1.78-.307 1.081-.661 2.718.955 1.187 1.889 2.39 2.802 3.597a.271.271 0 0 1 .025.215c-1.859-.228-2.196.038-1.998 2.338-.614-.226-1.211-.458-1.809-.647-.029.749.905 1.918 2.07 2.238-.29.139-.643.299-.875.484-1.073-.585-1.872-1.005-2.154-2.487-.901.505-.698 1.902.067 2.962m3.37-3.054c.24.101.484.202.707.223.699.438.362.021.669.913-.501.008-1.044.008-1.545.025.047-.378.102-.748.169-1.161m.114 4.573c-.337-.004-.644.021-.896.009-.021-.283-.055-.577-.038-.897.307 0 .585-.016.904-.016.009.286.009.614.03.904m2.09 2.697c-.239.013-.462 0-.66.009-.1-.135-.215-.312-.307-.438.366-.085.614-.172.951-.261a4.69 4.69 0 0 0 .016.69M-28.15-34.517c.046.022-.017-.218-.072-.437.164.114.24.236.072.437m-117.116-112.491c.063 0 .168 0 .215-.013-.139 1.149-.29 1.384-1.191 1.796-.143-.849.177-1.283.976-1.783m-5.41 130.448c-.215-.017-.4-.017-.652-.017a3.55 3.55 0 0 0-.215-.58c.059-.177.139-.37.215-.564.197-.025.366-.042.605-.034-.008.43.009.782.047 1.195m117.023-20.177c-.009.202.021.332.008.5-.307.008-.614-.017-.875 0 .4-.458.046-.24.867-.5m-116.64 12.739c.025.521.025 1.022.038 1.54-.185.024-.413.024-.581.024-.055-.252-.156-.512-.24-.756.038-.278.114-.531.206-.791.156.025.383-.017.577-.017m-.758-5.234c.059.269.042.501.042.753-.214.017-.404.017-.597.017 0-.109-.013-.269-.03-.392.152-.109.291-.277.413-.378a.619.619 0 0 0 .172 0m-1.013 6.665c.29.109.534.218.82.37v.176c-.286.068-.53.135-.808.21-.012-.252 0-.521-.012-.756M-9.424-3.922c-.156.148-.295.312-.475.472a2.103 2.103 0 0 1-.417-.278c-.008-.109-.038-.278-.03-.437.279.024.627.033.922.024-.025.051-.025.127 0 .219m-141.029-18.292c.261-.093.551-.16.841-.244-.366.702.126.261-.61.631a1.72 1.72 0 0 0-.231-.387m171.704 38.61c-.009.146.02.332.055.458-.308.008-.615.034-.913.034.42-.505.067-.253.858-.492M-.446 12.065c-.198-.159-.492-.306-.706-.474a1.903 1.903 0 0 0-.215-.438c1.115.046 1.258.13 1.805.635.176.093.344.177.497.228-1.01.357-1.965.656-2.946.971.446-.652.585-.727 1.565-.922m.754 2.504c-.249-.008-.485 0-.724 0-.076-.147-.144-.315-.228-.459.32.084.644.135.917.211.017.084 0 .147.035.248m-2.029-8.865c0 .076.017.131 0 .228-.319 0-.597.034-.904.034 0-.317 0-.614-.029-.901.765.269.521.084.933.639m6.664 1.919c.691.059 1.364.139 2.024.186.723.39.4.024.723.882-.146 0-.332.022-.454 0-.727.543-.53.367-1.376.022-.075.437-.122.762-.188 1.174-1.452-.199-.901-.186-2.273.277-.147.235-.315.454-.454.69 1.304.299 4.561.875 7.299.547.102.135.148.274.24.438 0 .273 0 .614.03.908-.409-.075-.766-.113-1.145-.201a8.253 8.253 0 0 1-.921.219c.316.681-.038.315.467.689.724.417.955.025 1.843.417.202-.392.463-.783.66-1.157.438.627.299.387.231 1.136-.138.412-.286.795-.416 1.17-.61-.009-1.212.025-1.838.025.395-1.027-2.941-1.099-4.59-.816.046-.543.138-1.065.206-1.586-.328-.19-1.296 0-2.264.268-.445.03-.937 0-1.38.038.152-3.348 2.769-3.576 3.576-5.326m12.832 4.283c-.248.026-.462.03-.698.037-.1-.483-.147-.921-.24-1.358.291-.113.598-.186.875-.27.063.547.047 1.086.063 1.591M-1.767 3.467c.017.096 0 .261-.012.42-.279.021-.569.021-.893.038.446-.476.109-.257.905-.458m-7.396-6.042c.766.581 1.565 1.186 2.271 1.779.122.148.19.291.274.459-.487.396-.597.4-1.594.501-.337-.623-.4-.408-.678-1.149-1.119-.416.11-.172-.702-1.111.121-.151.281-.337.429-.479M13.614 8.359c.997.345.8.084.943 1.329.345 0 .736 0 1.124-.007a27.3 27.3 0 0 0 .942 1.788c-.093.092-.169.201-.215.222a4.943 4.943 0 0 1-.707.274c-.829-.467-.353.118-.707-.926-.66.278-1.333.539-1.994.749-.214-1.148.021-1.948-.761-2.499-.005-.055.025-.151 0-.231.992-.4.828.222 1.375-.699M-3.084 5.52c.013.568 0 1.19.042 1.817-1.527-.337-2.898-.45-4.556-.812-.501.454-.194.349-.93.699.333.714.24.445.699.875-.151.155-.308.332-.459.483-.215-.336-.454-.614-.678-.913-.151-.69.707-.812.867-2.486 3.079.484 2.003.698 5.015.337M-3.172.967c-.311-.008-.606 0-.926 0 .077-.252.139-.438.244-.673-.521-.429-.067-.315.416-.492a10.2 10.2 0 0 0 .013-.438c.279.148.614.282.905.454-.888.62-.551.182-.652 1.149m-5.423 3.732c-.286.008-.597.013-.876.013.421-.442.076-.228.906-.472-.009.16-.018.295-.03.459m1.136-1.148c.307-.018.622-.018.926-.026-.346.959.042.568-.913.926.008-.311-.013-.606-.013-.9m4.451 4.678c-.324.875.008.462-.69.951-.139-.8-.177-.564.215-1.165.151.084.306.122.475.214m-1.75-6.118c0-.218 0-.445-.017-.673.307 0 .631.009.9 0-.408.653-.033.371-.883.673m13.921-21.01c-.008.134.013.303.047.455-.354-.009-.644.024-.951.024.45-.441.105-.226.904-.479m-15.04 55.417c.004.16.004.32 0 .471-.278.026-.585.033-.918.033.438-.504.093-.26.918-.504m.084 4.089c-.315.168-.61.363-.909.484-.214-.055-.45-.113-.682-.206-.016-.232-.008-.463-.016-.664.386.126.791.252 1.152.386.14.026.291.017.455 0m-2.743.287c.008.306 0 .623.046.925-.345 0-.644.008-.934.034 0-.294.029-.598.013-.951.294.008.567 0 .875-.008m4.969-2.828c.298-.034.618-.16.913-.227.008.215-.018.437.012.665-.244.009-.484.017-.69.051-.055-.177-.147-.325-.235-.489m-1.393-.618c.48.534.155.067.223.669a4.727 4.727 0 0 0-.66.013c.164-.53-.215-.24.437-.682m.223-.699c0-.248.034-.467-.038-.693.324.079.631.155.938.193-.277.168-.585.307-.9.5m-3.597 2.785c.151.324.319.594.521.897-.336.016-.63.025-.951.034.135-.312.29-.607.43-.931m4.333-.071c-.219 0-.45.009-.682-.008 0-.202.017-.437 0-.674.077 0 .122-.016.206-.016.164.253.316.437.476.698m-24.603-12.508c.689-.501 1.042-.514 1.775-1.174.563.615.437.757.505 1.372.689.059 1.38.118 2.07.201.445 1.099.938 2.248 1.413 3.392-.29.147-.631.286-.921.471.017-.387 0-.782 0-1.145-.076 0-.152 0-.215-.008-1.195.13-1.018-.13-1.396-1.321-1.137-.261-1.279-.29-2.517-.185.047-1.169.047-.858-.714-1.603m-1.183-1.09c-.008-.597-.037-1.212-.037-1.817.462-.033.95-.046 1.387-.033-.483 1.387-.268.146.039 1.825-.429.017-.914 0-1.389.025m20.068 13.682c.202.32.37.64.51.918-.324.176-.598.336-.876.513-.062-.4-.046-.775-.029-1.17.105-.076.291-.143.395-.261M-29.025 28.36c0-.24-.026-.475-.017-.669.202-.038.438-.042.652-.038-.375.821.147.27-.635.707M18.373 7.572c.454.152.904.303 1.397.443-.017.277-.03.576.008.882-.454.085-.913.182-1.397.261.223-.306.484-.614.682-.904a2.991 2.991 0 0 0-.673.017 3.252 3.252 0 0 1-.017-.699m-30.452 27.272c-.669.147-1.304.344-2.02.509-.146-.416-.332-.762-.466-1.145-.172-.071-.294-.177-.455-.231 2.87-1.406 6.829.707 8.268 3.483.05.522.176 1.077.227 1.607-.997.144-1.949.321-2.933.489.27-.91.556-1.843.863-2.743-.876.344-.555.462-1.565.719 0-1.22.227-.938-.522-1.591-.138-.138-.286-.273-.455-.45-.306.244-.589.48-.883.698-.017.237 0 .451-.017.712.787.954 1.321 1.173 1.452 2.924-1.064.239-.942.201-2.276.522-.463-.813-1.46-1.271-2.066-2.033 1.111-1.292 2.142-1.72 2.848-3.47m5.503-.354c-.349-.009-.648.026-.908.017 0-.236-.038-.454-.022-.673.32.143.581.273.888.429.047.076.042.151.042.227m2.907 9.508c-.239.08-.462.177-.677.249-.076-.164-.176-.291-.244-.437v-.224c.307.131.614.295.921.412m7.965 1.187c-.013.26.033.471.025.711-.286 0-.577-.013-.913.021.438-.703.046-.375.888-.732m1.367-1.582c-.437.774.122.252-.673.69.274-.614-.24-.362.673-.69m25.021-1.658c-.308.126-.615.312-.939.467-.076-.147-.151-.29-.206-.45.223-.063.454-.143.652-.239.185.084.307.168.493.222m-23.67 1.641a3.19 3.19 0 0 0-.691 0c-.093-.168-.13-.307-.214-.476.139-.071.278-.13.458-.248.157.241.316.463.447.724M33.17 41.65c-.025.211.02.438.017.691-.303-.004-.611.033-.922.009.45-.665.03-.375.905-.7m-.716-1.792c0 .161.009.303-.02.467-.261.005-.585.005-.875.005.403-.472.045-.261.895-.472m.716.649a4.528 4.528 0 0 0-.025.487c-.283 0-.607.022-.897 0 .446-.479.047-.226.922-.487m-64.308-13.944c.026-.298 0-.596-.02-.933.521.319 1.102.58 1.611.908-.295.135-.594.324-.862.463a7.565 7.565 0 0 1-.729-.438m29.817 10.776c-.366.807.169.29-.66.727.277-.618-.215-.357.66-.727m.475.223c.168-.077.295-.161.463-.228.177.244.308.463.442.656a3.278 3.278 0 0 1-.657 0 2.09 2.09 0 0 1-.248-.428m-3.336 4.392c.438-.918.896-1.843 1.317-2.743.408-.177.761-.32 1.144-.497.615.581 1.212 1.212 1.86 1.801-2.365.118-2.95 1.245-5.204 2.381-.569-.745 0-.497-.921-1.359.458-.239.891-.458 1.35-.711.159.824.067.711.454 1.128m3.715 3.345c.021.231 0 .467.021.698a4.267 4.267 0 0 0-.905.038c.03-.262.122-.484.199-.754.231.009.474.018.685.018m2.676-2.096c.025.585.075 1.233.063 1.826-1.199.139-.921-.138-1.337.699-.321-.168-.645-.261-.952-.438.203-.24.447-.429.669-.698-1.22-.113-2.465-.308-3.862-.139.231-.934.399-1.851.631-2.76 1.658.699 2.18 1.574 4.788 1.51m-.753-4.098c.033.409.017.762.046 1.149-.337.009-.644.042-.904.051-.261-.261-.493-.48-.691-.699.337-.311.716-.593 1.099-.9.159.117.315.269.45.399m-26.047-5.136c-.168-.261-.32-.467-.475-.674-.046-.235-.03-.496-.03-.724.316.009.627.042.921 0-.092.931-.037.884-.416 1.398m-20.181-18.293c.306.008.596 0 .904-.017a.541.541 0 0 1-.017.227c.033.295.017.614.063.938-.332-.012-.66-.012-.921-.004.235-1.093.122-.085-.029-1.144m-.354 6.15c-.308-.004-.585.026-.875.026-.261-.606-.501-1.212-.736-1.796.311-.005.58 0 .904-.031.235.615.459 1.238.707 1.801m2.04-.711c-.261.022-.585 0-.875.022-.122-.236-.185-.447-.261-.699-.151-.059-.337-.151-.446-.198.299 0 .64 0 .905-.029.699.421.37.038.677.904m.589 6.117c-.021-.213-.021-.437-.021-.66.307.084.615.118.939.215-.324.13-.61.323-.918.445m1.591 1.12c-.261.138-.569.315-.875.492 0-.387-.018-.757-.022-1.153.299.064.611.148.897.219.029.152.016.303 0 .442m-1.688-5.423c-.109 0-.306-.017-.425.034-.092-.228-.18-.497-.282-.674.804.392.317-.168.707.64m-3.929-3.992c.012.29 0 .592.03.887a6.335 6.335 0 0 0-.922.026c.353-.96-.046-.598.892-.913m5.373 6.92c.168-.539-.223-.227.483-.681.383.538.067.075.215.664a3.777 3.777 0 0 0-.698.017m67.689-20.06c0 .084 0 .169-.009.253-.239.168-.445.299-.698.463-.261-.144-.598-.279-.875-.417 0-.075 0-.13-.017-.252.77-.485.434-.195 1.599-.047m-1.405-.883c.021.201.021.345.021.496-.303-.013-.635-.004-.934 0 .429-.45.105-.265.913-.496m-1.772 2.558c-.294.16-.601.328-.875.488-.1-.16-.176-.282-.26-.476.227-.067.466-.169.681-.223.16.054.308.135.454.211m-71.282-.379c-.492.399-1.068.753-1.553 1.178 0-.333-.011-.615-.011-.901.213-.1.449-.168.689-.268.274.007.598 0 .875-.009m66.516 34.424c-.299-.009-.602.02-.905 0 .004-.085 0-.164-.008-.241.085-.038.13-.046.244-.084.244.114.475.215.669.325m-63.815-24.693c-.215.164-.454.324-.66.467-1.443-3.104-1.713-4.648-2.424-7.69.059-.228.122-.451.181-.682 0 0 2.688 7.329 2.903 7.905m31.066 15.756c-.017.101-.017.177-.017.244a23.89 23.89 0 0 1-1.351.27c0-.396 0-.775-.029-1.15a4.73 4.73 0 0 0-.627.013c-.033 1.145.013 2.306.03 3.425.429-.269.905-.496 1.334-.707-.106 1.565-.708.614.016 1.574-.95.042-1.927.033-2.924.075 0-.075-.025-.184.009-.244.487-.567.614-.445.858-1.371-.82.459-.417-.084-.661.909-1.303-.329-1.935-.951-2.078-2.453-.307.239-.593.467-.913.711-1.106-.959-.824-1.595-2.049-1.325-.173-.299-.332-.623-.547-.897.463-.512 1.162-1.152 1.86-.769.475.483.32.231.488 1.157.446-.459.252-.067.429-.9.922.302.539-.042.694.672.206.026.43-.034.661-.034.243-1.338.534-.773-.249-1.586 0-.062 0-.138.018-.231 1.788-.412 2.393 1.275 4.274 1.06a.237.237 0 0 0 .097.059c.184.522.434.984.677 1.498m-20.275-11.427c0 .152.013.316.031.454-.325 0-.598 0-.893.018.408-.437.034-.249.862-.472m4.679 6.757c-.228.004-.441.013-.673.021-.063-.172-.185-.332-.215-.458.215-.08.43-.164.66-.219.077.219.153.395.228.656m-.98 7.519c-.291.164-.597.323-.875.492a2.173 2.173 0 0 1-.249-.438c.203-.084.447-.218.678-.253.11.042.323.123.446.199m-.661-.669c-.315.146-.597.315-.938.483.446-.475.08-.239.938-.483m.892-11.629v.471c-.219-.008-.48-.034-.715-.008a20.938 20.938 0 0 0-.261-1.818c.316.017.635-.042.959-.025.017.471-.008.95.017 1.38m-1.569 1.653c-1.111-1.052-.888-2.003-2.562-2.47.008-.092-.017-.176.008-.26.808-.447.408-.148 1.565.009.379 1.026.64 1.531 1.435 2.238-.16.168-.308.306-.446.483m1.552-.736c-.076.951.038.69-.399 1.157-.299.139-.627.307-.893.454.093-.614.363-.483.615-1.595.249-.007.455-.007.677-.016m-9.684 4.965c.029.244.029.463.029.698-.231.055-.45.151-.674.252-.138-.782-.214-.56.198-1.156.148.075.307.122.447.206m8.977-7.666a.456.456 0 0 0-.038.218 12.29 12.29 0 0 0-.837 0c.177-.21.392-.45.631-.672.076.122.152.295.244.454m-4.375 9.638c.017.206 0 .459 0 .699-.215.156-.412.307-.635.442a7.944 7.944 0 0 1-.24-1.103c.261-.1.555-.185.875-.269 0 .067.017.177 0 .231m-1.397-1.551c-.429.798.14.277-.69.698.287-.636-.206-.366.69-.698m-1.843-2.003c-.336 0-.609.016-.917.016-.017-.306 0-.652-.033-.929.984.315.567-.064.95.913m6.463-7.7c-.366.733-.69 1.22-1.363 1.645-.076-.778-.202-1.48-.261-2.284a.4.4 0 0 1 0-.202c.273-.101.567-.168.888-.261.138 1.195-.354.614.736 1.102m-1.325 14.17c.159-.059.281-.16.45-.223.139.072.277.131.454.207.009.138-.029.31-.021.445-.214 0-.433.009-.694.009-.043-.11-.122-.277-.189-.438m.252 2.049c-.345.854.185.593-.644 1.165a10.216 10.216 0 0 1-.678-.475c-.104-.152-.197-.282-.26-.429.522-.177 1.044-.332 1.565-.492a.536.536 0 0 1 .017.231m-1.275-17.75c.168-.047.316-.156.447-.223.168.231.336.442.462.652-.202.025-.446.025-.661.067-.063-.176-.155-.328-.248-.496M-152.641-83.038c-.008-.177-.025-.416-.008-.597.269.055.585.105.812.181-.261.151-.543.294-.804.416m-.56 1.999c.206-.219.392-.434.627-.614.24-.522-.235-.333.585-.607.076.177.122.388.215.572-.459.211-.943.421-1.427.649m-6.142-48.139c.261-.021.538-.038.824-.021.005.261.005.526.021.803a6.618 6.618 0 0 0-.845 0v-.782m1.048 3.547c-.278 0-.539 0-.838.046.143-.215.261-.408.404-.614.185.151.261.261.425.399 0 .064 0 .114.009.169m4.371-2.617c.185-.047.416-.148.614-.206.076.126.156.261.202.374-.269.105-.538.168-.799.231 0-.109 0-.269-.017-.399m1.397-6.795c-.489.147-.981.27-1.427.425a56.255 56.255 0 0 0-.075-1.367c.458.185.875.379 1.275.585.066.096.134.222.227.357m.475 2.92c-.282.113-.568.177-.803.244 0-.122 0-.286-.026-.412.173-.051.417-.147.602-.211.075.135.181.278.227.379m-10.215 2.019c.223-.008.425-.025.614-.025-.353.724.127.261-.559.623-.013-.169-.013-.388-.055-.598m.762 5.095c-.476.022-.952.022-1.444.038.383-.547.632-.631 1.423-.829 0 .299.021.527.021.791m3.117 40.099c-.564.307-1.107.568-1.628.875.063-1.153.214-.568-.03-1.22.598-.412.951-.538 2.003-.623-.084.762.084.585-.345.968m4.703.497c0 .134.021.286.021.412-.29.004-.567.013-.828.004.387-.392.046-.168.807-.416m-38.091 45.53c.445-1.43 1.114-2.012 1.338-3.442.719-.782 1.026.572.765-.728.754-.168.648-.105 1.044-.428.387-.383.092-.224-.227-.93.067-.122.134-.236.168-.392 1.964-.534 5.032-5.355 9.239-5.486 1.611-.064 3.824-1.772 4.19-.694.417-.177 3.959-.312 4.338-.488.176 1.229.143.606.883 1.472.282-.008.551.009.829-.024 0 0 2.891 1.812 4.098 2.978 1.212 1.191 1.919 4.367 1.919 4.367.311.219.571.396.833.576-.291-.761-.077-.521.609-.606-.155-.105-.277-.223-.433-.345.556-.567.509-.753 1.397-.968.37.653.219.434.862.737-.155-.312-.307-.635-.446-.926 1.414.189.636.354 2.075.177-.371.627.105.198-.602.534.294.623.425.518.829.905.736.564-.412.471.416.757-.517.85-.202.43-1.014.244-.492 1.081.076 2.984.585 4.468.913-.656 1.763-.934 3.008-1.187-.008.253.03.51.03.749-.846.438-1.107.817-1.183 1.903-.374.067-.681.159-1.013.206a53.483 53.483 0 0 1-1.275-1.469c-.135 1.01-.227 2.028-.32 3.013.951-.24 1.018-.169 1.641.336.782-.446.736-.185.782-1.295.261-.026.522-.026.8-.026-.11 1.288-.644 1.721-1.115 2.625v.775c.408-.131.778-.291 1.19-.404.026 2.385.43 4.157 3.055 5.023v1.106c-.467-.298-.942-.605-1.443-.92-.076-.009-.114-.018-.215 0a26.94 26.94 0 0 1 1.212 6.966c-.244.177-.488.345-.766.564-.29.572-.244 1.414-.16 2.634.573.126 1.099.211 1.666.328-.34.807-.538.892-1.413 1.166.151.365.315.744.446 1.148-.838.033-.4.059-1.044-.202-.046.029-.13 0-.201.029.361 1.62.323.897.1 2.596.392-.126.783-.248 1.204-.387.155.513.286.997.429 1.506 0 .321.063.644.063.935-.366-.16-.707-.244-1.073-.383a.847.847 0 0 1-.168.399c.656.531.656.791 1.864.905-.24.568.008.257-.392.559.413.21.829.387 1.22.547.484.459.27.084.27.749.067.319.113.64.214.934-.269 0-.53.025-.816.012.126-1.527-.682-1.409-2.108-1.813.19.231.438.463.652.707-.724.219-.555.315-.631.399-.105 1.032.568 1.406.492 2.47.8-.117 1.629-.184 2.449-.29-.185.206-.408.399-.614.594.021.184.046.387.021.58-.829-.282-.476.025-.627-.58-.463.092-.938.151-1.397.235.673.547 1.38 1.098 2.07 1.619 0 .409.034.771.025 1.15-.976-.253-.993-.328-1.237-1.28-.445.278-.559 1.973-.538 3.214.109.034.278.093.4.169.08-.437.138-.88.147-1.317.235-.093.408-.139.635-.214.493 1.699.678 2.432.753 4.312-.866.265-.799.265-1.826.252.522.783-.492 1.073.244 2.449.017.092.017.215 0 .337.955-.29 1.191-.589 1.397-1.519-.627-.353-.337-.038-.614-.745.479-.13.938-.261 1.396-.416.241 5.687-.075 8.347.388 12.393-.362-.024-.707-.109-1.044-.159-.261.076-.547.135-.816.21.555 1.001.122.396.055 2.054.092-.009.147 0 .206 0a8.6 8.6 0 0 0 .139-1.137c.29.018.576 0 .812 0 .109 2.962-.459 3.618-1.027 5.663-.631 2.213 1.809 4.284 1.414 5.782-.602 2.136-1.397 3.277.122 5.056-1.473 1.498-1.918 2.575-1.691 5.705-.589.37-1.187.783-1.793 1.153.207.627.442 1.241.661 1.855-.433 0-.816.004-1.237.038.021 1.174.084 2.364.084 3.576-.383 0-.799.008-1.182.008-.092 1.061-.017.749-.829.775.837 2.785-2.057 5.267-3.256 7.573-.674-.219-.429-.19-.859-.543-1.194 1.611-.883 2.723-3.176 3.471-.808.387-.307.122-1.237-.219-.143.863-.269.177.038.96-.913.294-2.815.824-3.252.084-.337.685-.678 1.345-.959 2.069-.968.109-.829.211-1.469-.142.118-.186.265-.396.379-.582-.875.039-.594.321-.808-.74-1.136.695-.757 1.061-2.44.993.446.556.501.27.639.753.051.106.143.223.19.358-.114.042-.261.135-.383.202-.446-.392-.846-.736-1.275-1.11.168-.842.354-1.624.539-2.441-.337 0-.678.021-1.036.021-.298-2.571-.13-3.509.068-5.659-.068-.122-.152-.235-.198-.366-.416.064-.837.16-1.216.215a1.185 1.185 0 0 1-.244-.392c.261-.045.539-.113.829-.184-.681-1.611-1.334-3.235-2.011-4.868-.189-.635.682-1.14.593-1.317-.744-1.173-1.759-1.881-1.96-3.74-.413.05-.783.05-1.224.063.311-1.41-.648-1.771-.922-3.765.215-2.681.366-5.39.597-8.091-.29.151-.538.274-.828.421-.337-.383-.286-.27-.446-.951.753-.13.597-.055 1.245.177-.034-.139-.063-.241-.08-.332a.21.21 0 0 1-.059-.06c.013-.008.021-.008.03-.017-.19-.727-.291-.605.063-1.463-.063-1.229-.341-1.322-1.254-1.675.072-1.91.736-3.092-.143-4.136.522-.354.215-.185.812-.214.156-.127.286-.253.4-.388 0-.18-.017-.366-.017-.554-.274.218-.551.378-.791.58-.122-.068-.299-.118-.429-.168.101-1.573.69-2.432 1.123-3.602.82-2.162-3.096-26.681-4.746-29.778 1.591-2.108.514-4.939.24-6.95h-.231c-.03.631-.093 1.236-.122 1.88-1.38-.522-2.281-3.984-2.209-5.793a16.062 16.062 0 0 1-1.414-.164c-1.165-1.183-2.642-4.329-2.856-5.549-.383-.085-1.044-10.275.122-10.35m32.281-85.508a9.16 9.16 0 0 0-.812 0c0-.273-.016-.521-.016-.782.26-.013.542-.029.812-.013.016.253.016.514.016.795m-1.043-2.801c.261-.026.543-.013.829-.013 0 .261.017.53 0 .8-.206-.017-.4.02-.614-.017-.063-.253-.122-.492-.215-.77m3.223-2.621c0 .054 0 .114.021.176-.282 0-.56 0-.85.03.147-.202.244-.413.408-.606.181.143.261.261.421.4m-76.012 24.902c-.273-.021-.55 0-.812-.008.122-.198.262-.383.383-.581.164.101.295.228.425.383 0 .038 0 .122.004.206m85.091-38.327c.282-.042.53-.106.791-.199-.076.96.067.771-.551 1.221-.093-.333-.164-.669-.24-1.022m-2.84 57.024c.286 0 .547-.025.821-.055.008.278.008.551.008.799-.193 0-.408-.008-.589-.008-.08-.24-.156-.484-.24-.736m-89.862-28.407c.783.295.766.412 1.238.959-.623.101-1.238.177-1.852.269.207-.437.375-.816.614-1.228m.569-1.363c.261.034.521.092.803.16-.265.155-.542.277-.803.421v-.581m2.793 5.057c-.286 0-.555-.017-.829-.017 0-.303-.063-.635-.029-.968.29 0 .551 0 .829-.004 0 .337-.017.644.029.989m88.027 27.65v.379c-.29 0-.538 0-.82.016.374-.395.046-.24.82-.395m-89.117-30.788c.123.159.245.399.409.576a6.759 6.759 0 0 0-.838.038c.139-.215.265-.421.429-.614m89.054 28.187v-.391c.261.139.509.278.817.362-.295.021-.556.021-.817.029m-4.927-.084c-.353.691.093.244-.618.607 0-.199-.025-.383-.042-.573.261-.017.433-.034.66-.034m-.828-43.599c-.076.252-.122.493-.19.745-.391.076-.807.185-1.207.244.4-.627.492-.782 1.397-.989m1.013-4.06c-.067.261-.113.505-.185.758-.382.071-.812.184-1.211.248.399-.636.509-.795 1.396-1.006m-.159 48.82v-.563c.189.009.4-.009.606 0-.354.715.138.218-.606.563m4.097-54.609a5.137 5.137 0 0 0 0-.804c.455-.062.914-.146 1.435-.231-.37.606-.109.833-1.435 1.035m-5.948 53.869c.26 0 .538-.013.807-.013.27.644.316.543.653.959-.492.038-.968.055-1.444.076.009-.357-.016-.677-.016-1.022m-9.669-33.254c.244-.773.375-.521.543-1.413.286.143.568.269.838.37-.43.677-.392.808-1.381 1.043m-35.441 25.79c.261-.042.568-.008.85-.055 0 .421.025.813.008 1.183-.231-.009-.412.021-.631.038a5.668 5.668 0 0 0-.227-1.166m16.168 6.538a13.42 13.42 0 0 0-.803 0c0-.1 0-.261-.034-.399.215-.038.4-.131.602-.168.113.13.139.261.214.365 0 .064.021.14.021.202m144.875 3.829c.69-.26.522-.345 1.582-.492.522.341.98.635 1.426.967 1.994-1.022 2.428-1.442 5.036-1.628.215.315.476.648.766.968 1.573 1.312 5.251-.884 6.74.648 1.565.075.934.274 1.351-.522.883.32.66.169.828.993 2.364-.282 4.329.185 6.425-.337.496.421.988.854 1.447 1.288.093-.253.164-.543.21-.816.261 0 .623 0 .913-.009.186.488.383.976.585 1.465.736-.262.534-.363 1.136-.653.273-.105.551-.198.887-.307.607.555 1.107.9 1.919 1.283.063-.277.139-.56.201-.82.505.176 1.048.32 1.688.479.399-.635 0-.656 1.043-.959.021.303.021.631.067.977 1.684-.539 2.756.066 4.877-.215.013.517.046.997.055 1.48.05-.012.143 0 .252-.004.059-.328.122-.656.177-.959 1.396.287 1.657.497 3.315.627.403.332.328 1.065 1.426 1.304 2.066.438 8.604-1.064 10.721 1.267.416.009.798.009 1.198-.017-.383-.522-.261-.303-.724-.652.064-.089.11-.19.202-.316l1.372-.176c.008.395.042.769.072 1.135.092 0 .142.009.231.009.219-.311.429-.652.673-.976.063 0 .139 0 .215.008.025.648.046 1.3.071 1.944.829-.294.299.092.691-.496 1.724.264 2.317 1.161 3.369 1.598.273.135.61.236.918.354-.013-.228 0-.438-.031-.656 1.675.29.578.335 2.075-.177.429.496.467.277.749.968 1.35-.417 1.952-.699 3.016-.139.072-.249.139-.446.211-.661.311-.033.58-.026.904-.008-.24.315-.382.66-.614.967-.016.05-.009.109-.009.169 2.802.26 7.229 1.413 8.343 3.374.455-.106.905-.199 1.367-.312-.37.253-.769.539-1.152.82.892.084 1.733.177 2.588.299.02.286.055.531.037.808 2.731.084 6.08 2.554 9.008 2.726.009.345.034.648.034.963 3.021-.344 6.773-.004 7.375-.971.866.273.269-.101.698.471 3.959-.282 2.533 3.24 2.226 5.175-1.367.707-6.954 3.092-6.908 4.59-4.544-.689-4.267 2.772-8.137 3.913-.022-.169-.013-.328-.022-.492-1.203.239-2.633.917-3.137 1.644-1.108-.248-.632-.138-1.221-.643-.791.766-1.686 1.624-2.634 2.264-.875.37-.408.298-1.165-.139a6.03 6.03 0 0 1-.446.635c-.85-.32-.37.092-.736-.644-.921.341-1.06.82-1.031 1.797-1.195 0-.997.046-1.884-.186-.047.409-.893.884-1.781.669-7.867 1.165-11.19 2.255-12.659 2.962l-.82.164c-.934-.034-2.47.034-4.94.228-1.489.121-3.546 1.413-4.329.735-.315.333-.215-.239-.509.093-.875-.168-.534.606-1.009.282-.863-.328-1.889.656-2.151-.177-1.766 0-1.964-.353-3.024.042-.82-.251-1.641-.126-1.89-.824-.096 0-.168-.012-.26-.012-.757.727-2.516.075-3.652.521-1.721-.009-6.062-.063-6.294-.627-1.414.345-2.238.253-4.296.076.03-.488-.614-.387-.647-.876-1.119.455-1.566-.243-2.2.565-1.07.033-1.637-.084-2.609-.472-.379.412-.426-.429-.593.244-.261.017-.476-.016-.72-.008-.602-.539-1.291-.362-1.956-.892-.824.143-.501.185-1.313.311-.038-.033.013.135.059.283-.269-.14-.711-.261-.458-.501-1.137-.042-1.229-.813-1.52.1-.277 0-.614-.008-.908.009-.198-.732-.215-.084-.829-.421-.614-.062-.038.076-1.38.32.151-.707.253-1.266-.811-1.78-.707-.341-.073-.168-.893.009-.244-.707-.29-.139.392-.813-1.444-.146-1.621-.255-1.788.489-4.284-.286-3.409-2.709-7.401-3.063.064-.303.093-.627.164-.98-.837.231-.555.332-1.56.492-.06-.501-.06-.968-.122-1.46-.43 0-.906.009-1.36.009.055-.875 0-.791.825-1.145 0-.269-.017-.521-.043-.804-.802.337-.496.013-.634.812-1.191-.269-2.487-1.039-2.899-1.927-4.409.047-3.534-.252-6.804-1.136-.02-.164-.02-.324-.058-.466.399.092.774.193 1.212.302.046-.042.151-.087.244-.168-.59-.794-1.195-1.607-1.797-2.406-.926-.067-.795-.067-1.595.152-.412-.505-.075-.543.37-1.28-.016-.176-.007-.337-.062-.501-.72.206-.913.375-1.305.813-1.106-.237-1.106-.581-1.733-1.305a6.43 6.43 0 0 0 .913-.311c-.567-1.031-.946-1.868-.875-3.265-.762.269-.576.346-1.565.492.391-2.355-3.34-5.877-1.851-10.37-.813-.177-.69-.135-1.166-.488-.997-.286.404-2.911-.017-3.871a72.18 72.18 0 0 0 2.289-.664c-.938-.678-1.43-.716-1.523-2.113.631 0 1.228 0 1.843-.009.429-1.034.922-.664 1.738-1.779.773.248.963.29 1.502.636 1.564-1.086 3.992-.951 4.274-1.465 1.115.236.821.034.976.984.774-.377.935-.63 2.032-.853.392.429.425.299.744.82.893-.029 2.289-.374 2.488-.8.904.321.651.102.798.96 1.418-.253 1.873-.732 3.383-.971.648.596 1.145.559 1.498 1.434m-139.111-24.175a47.35 47.35 0 0 0-1.229.215c-.008-.539 0-1.044-.012-1.574.459 0 .951-.013 1.401-.046-.067.472-.088.921-.16 1.405m7.337-5.839c-.113-.21-.231-.493-.412-.753.059-.139.114-.27.215-.374.197-.026.382-.026.58-.009-.046.749-.021.727-.383 1.136M59.97-130.129c.366.122.718.235 1.072.362v.353H59.97Zm-238.729 19.5c-.429.064-.812.14-1.241.224 0-.56 0-1.074-.025-1.599.471 0 .959-.013 1.43-.042-.08.458-.101.917-.164 1.417m289.181-43.022c-.669.13-1.321.269-1.982.399 1.174.131 2.365.27 3.564.392v.399c-2.995 1.726-3.361 2.693-5.158 5.142.934.521 1.855 1.06 2.768 1.582-.113.277-.26.521-.391.799-1.965-.21-1.548.067-2.377-1.199h-1.182v1.99h3.95c-.513.521-1.048 1.056-1.569 1.578.521.269 1.056.521 1.569.791-1.586 1.425-2.154 1.219-2.368 3.168-2.475.753-8.428 2.389-13.464 1.589v-1.977c1.292.463 1.09.543 1.99 1.179h.392c-.399-1.726-.601-1.44-1.199-2.76-2.991.791-4.413.471-7.114 1.169-1.372 1.044-.589.173-.804 1.591-.248.126-.509.252-.778.399-.783-.972-.223-.16-.405-1.19-1.628-.99-6.739 1.859-8.704 1.972-.728-.399-.244.064-.383-1.181-1.981.689-1.414.614-1.582 1.981v.4c-1.257-.69-.475.176-.807-1.2-1.044.131-2.109.261-3.152.409v.391c.905 1.814 1.149.525 1.566 2.773 3.39-1.553 5.755-2.251 8.35-2.76v-.396c.228-.134.489-.253.72-.362.186.177.362.354.538.53.354-.067.707-.126 1.09-.176.139.244.261.521.4.791h.783c-5.288 4.711-13.388 2.019-18.205 1.573.26.395.535.8.799 1.186-1.868.565-1.842-.353-2.772 1.591h-1.99l-.03-.472h-.353v-.711c.122.03.248.072.383.115.063-.16.185-.366.399-.909-.261-.27-.521-.539-.782-.8-1.229.648-1.826 1.969-2.377 3.168-4.619-.248-8.718.98-12.281 0-.766 1.022-.366.366-.383 1.582-2.494-.278-4.237-1.851-7.122-1.582v-1.982c4.543.585 11.283.762 14.628-.791h.807v-1.177c-4.766.206-8.035.176-12.272 1.177-.782-.971-.232-.151-.4-1.177 0 0-7.497-.126-11.88 0 .26.386.521.782.798 1.177v.405c-3.192-.875-4.665-1.292-9.103-.8v1.687c.509.084 1.014.168 1.518.261h.741c.113.231.215.476.349.707-.964.13-1.919.244-2.882.357-.08-.344-.172-.672-.249-1.017-5.687.1-10.357-.446-11.75-.809-2.663-.05-2.415-.113-2.768 1.2-.261.13-.53.252-.791.391-.855-1.09-.24-.076-.4-1.591-1.191-.134-2.373-.268-3.559-.386-.131.252-.261.521-.4.794.531.392 1.065.792 1.586 1.183-.765 1.796-9.605 1.212-11.523.403-.955.948-1.784 3.072-2.129 5.209.046 1.204.379 3.19.921 5.201.147.1.286.202.455.269-.018.328-.047.69-.063 1.043.891 2.827 2.212 5.39 3.761 5.528-.408 1.342-.067 4.856.075 6.706.447-.038.892-.038 1.368-.084-.168 2.205.122 4.948-1.637 5.97.286.627.577 1.325.871 2.032-.084 1.187-.223.884-.538 1.628-1.015-.155-.598-.104-1.208-.576.047 1.473.071 2.953.118 4.422-1.044-.197-.598-.147-1.25-.598-.547 1.313-6.971 6.799-8.797 6.287-.362-.594-.69-1.183-1.09-1.768-1.758-1.203-4.245.594-4.859-2.891-1.666.275-2.495-1.544-4.817-1.708a30.872 30.872 0 0 1-.11-1.624c-.567-.268-1.143-.547-1.716-.807a3.716 3.716 0 0 0-.492-.177c.458-.037.905-.067 1.426-.101-.551-1.157-1.426-.639-1.62-2.898-.484.277-.912.517-1.35.799-.021-1.309.092-1.342.547-2.179-1.338-1.015-2.764-3.686-3.257-5.52a36.27 36.27 0 0 1-1.363.315c-.046-.075-.033-.139-.046-.223.235-.063.442-.176.682-.29-.026-.063-.026-.156-.026-.231a8.113 8.113 0 0 1-1.363-.131c-.202-1.788-.93-2.339-2.351-2.579.424-1.359-1.141-5.31-.522-6.508-.459.055-.905.067-1.381.151 1.09-2.053.076-6.643-1.985-7.556.543-.724.942-1.338 1.174-2.331l-.325-.715c-.244.177-.399.311-1.072.496.143-.74.269-1.557.336-2.385-1.637-4.851-1.535-10.32 2.012-17.228.799-1.498.429-.447-.401-1.974 1.444-1.081 9.332-10.791 9.509-11.489 6.332.681 7.913-5.988 16.219-3.551 12.462 3.635 58.984 8.195 65.316 4.35-.084 1.463.21.395-.791 1.582v.395c3.471.076 3.917-.45 5.541-1.977v1.582c1.75-.531.799.295 1.582-1.187 1.258.694.476-.189.799 1.187 1.81-.493 2.049-.939 3.16-1.973.126.66.261 1.308.4 1.973 2.932-.538 1.981-.051 6.332 0 .622-.775.53-.531.791-1.973h2.381c-.4.391-.799.786-1.199 1.182.989.69 1.704.214 3.167.791.131-.126.257-.261.392-.396-.392-.395-.782-.791-1.194-1.186 1.106-.64 9.432-.564 13.062-.799-.248.408-.521.799-.782 1.194 3.698.539 4.788-.786 6.724-1.985 1.303.614.474-.194.795 1.199 2.511-.392 2.128-.231 1.981-1.591 1.948.299 1.165-.366 1.582 1.183h4.75v-.392c-.4-.269-.791-.521-1.183-.791 1.65-.971 4.528.737 5.533 2.773.278.269.522.53.791.791-1.898 1.051-1.464-.429-2.773 1.594v.383c4.439-.551 5.297-1.245 9.504-.383.14.252.274.509.401.791-2.197-.176-1.827-.791-2.765.783m-276.778 31.688c.875.299.521-.055.875.775-.29.038-.539.008-.837.038 0-.253-.009-.539-.038-.813m138.989 30.086c-.408.387-.308.303-1.108.56.085-.257.253-.493.401-.746.231.077.458.123.707.186m-145.62-21.137c-.017.278 0 .531 0 .757-.231.026-.538.034-.799.051.046-.248.092-.556.214-.808.185 0 .387.008.585 0m204.238-19.984v.361h-1.077v-.723c.362.118.723.244 1.077.362m-4.674 1.081c.361 1.006.598.168 0 1.064-.231-.113-.467-.227-.707-.357.24-.231.476-.476.707-.707m4.674.707c1.09-.35 2.15-.707 3.239-1.061.505 1.145.354.686 1.073 1.418v.354c-2.553-.488-1.855-.48-4.312 0zm-3.223 0c.228-.231.476-.476.72-.707.231.231.463.476.698.707-.328.244-.698.483-1.064.711-.126-.228-.24-.467-.354-.711m-9.34.711c.236-.105.484-.228.711-.354.139.126.248.249.371.354-.232.252-.476.492-.724.732-.122-.127-.227-.24-.358-.362zm-188.418 12.773c-.072-.413-.148-.799-.219-1.204 1.338.135.706.127 2.057-.042-.013.055-.046.16.008.186-.643.37-1.22.715-1.846 1.06m6.567-7.766c-.008-.177-.008-.379-.046-.589.214 0 .42-.034.597-.034-.345.715.139.261-.551.623m-4.081 7.471c.849.295.505-.05.849.762-.298.038-.529.017-.82.038 0-.244-.016-.53-.029-.8m4.548-6.748c.194.042.362.126.601.172v.206h-.639c.017-.151.017-.21.038-.378m-1.035.98c-.429.682-.383.804-1.397 1.057.261-.783.383-.535.568-1.431.278.143.585.265.829.374m.681 3.362h-.618c.004-.151.004-.219.029-.379.185.051.354.135.589.177zm.577-1.388c0 .29.016.53.016.791-.462.008-.946.008-1.421.02.378-.542.614-.622 1.405-.811m-10.253 4.901c.168 0 .383.017.585 0-.017.29 0 .547 0 .787-.249.021-.556.025-.817.033.063-.26.11-.555.232-.82m-1.628 1.653v.387c-.291 0-.573-.012-.829.043.4-.43.071-.262.829-.43m1.375 3.421c.021.046.021.101 0 .223.021.277.038.614.021.933-.26.018-.521.035-.803.035a2.869 2.869 0 0 0 0-.371 5.893 5.893 0 0 0-.593-.016c.185-.144.399-.262.593-.396.236-.134.543-.295.782-.408m-3.016.866c.408-.428.063-.244.812-.428v.399c-.274 0-.551-.017-.812.029m3.854-4.522c.029.303.046.622.029.955-.261.008-.522.013-.812.02a1.71 1.71 0 0 0 0-.365c-.202-.009-.437-.03-.601-.009.193-.155.399-.26.601-.417.227-.133.534-.273.783-.403a.651.651 0 0 1 0 .219m.58-2.184c.202-.021.4-.021.593-.016-.037.769-.025.753-.391 1.156-.109-.21-.231-.505-.399-.766.058-.133.105-.268.197-.374m.956 3.85c-.064-.412-.14-.782-.22-1.187 1.33.122.695.122 2.045-.042-.008.059-.046.143.013.173-.635.358-1.203.702-1.838 1.056m9.1-9.369c.277-.038.538-.005.828-.005v.766c-.198-.008-.399.03-.614-.008a8.271 8.271 0 0 0-.214-.753m-97.33 65.648c.236-.012.522-.012.783-.012v.774c-.185 0-.417-.025-.585.009-.076-.295-.134-.539-.198-.771m2.777 1.154c-.269.104-.53.239-.782.382 0-.206-.009-.412-.009-.589.269.076.501.126.791.207m-4.173-2.268c-.261.177-.522.37-.762.529-.021-.159-.021-.352-.021-.534.261 0 .522 0 .783.005m8.456-6.312c.122-.239.248-.5.383-.791.193.211.429.388.639.59-.21.13-.391.261-.593.391-.143-.046-.29-.13-.429-.19m-3.13 8.55c-.248.134-.492.252-.753.387a24.67 24.67 0 0 1-.021-1.136c.849.269.475-.042.774.749m-7.867.05c.008-.197.024-.403.024-.589.182 0 .383.017.598-.025-.383.681.092.253-.622.614m9.369-9.34c-.047-.261-.03-.53-.047-.774.779.223.434-.037.829.568.64.248.248-.009.648.383l-.614.193c-.294-.117-.568-.26-.816-.37m-26.644-24.259c0-.117 0-.206.021-.311.164-.067.361-.126.593-.201.046.134.122.252.168.383.021.08 0 .146 0 .206-.214-.022-.446-.022-.644-.03-.046 0-.075-.03-.138-.047m6.184 21.642c-.198-.235-.383-.521-.568-.74.122-.152.24-.257.37-.412.269.134.535.26.812.395.063.122.11.236.186.383-.063.105-.139.24-.207.366-.176-.021-.378 0-.593.008m1.031 3.745c-.126-.304-.248-.627-.4-.918.274.106.535.236.791.362a4.442 4.442 0 0 1-.391.556m9.66 5.36c-.051-.194-.143-.378-.19-.547.383 0 .766 0 1.166-.008 0 .361-.009.74 0 1.161-1.06-.151-.307-.392-.976-.606m12.84-4.99a1.991 1.991 0 0 1-.185-.391c.875-.101.997.156 2.057.375 0 .054.009.109 0 .184-.231.131-.399.261-.627.379-.408-.168-.816-.333-1.245-.547m-21.688.202c.568.227.223-.034.551.366-.093 0-.261 0-.337.012-.109-.117-.151-.252-.214-.378m4.514 1.085c.236 0 .513 0 .775-.02-.287.795.037.474-.762.753-.013-.253-.029-.501-.013-.733m-15.243-24.696c-.122-.652-.138-.458.186-.934.151.068.273.114.395.16-.273.745 0 .404-.581.774m13.064 23.611c-.539-.808-.387-.564-1.384-.761v-1.154c.122-.037.26-.096.382-.168.602.569.695.955 1.583 1.292-.253.711.016.396-.581.791m38.757 3.879c.134-.176.273-.375.365-.564.169.059.278.127.43.177 0 .092 0 .127.046.211 0 .054-.029.117-.021.184-.261.009-.522.009-.745.026 0 0-.063 0-.075-.034m25.31 9.134h.736c-.261.316-.492.635-.736.968zm-28.352-7.258c.307.009.547-.016.828-.033-.075.984.047.799-.588 1.22a46.097 46.097 0 0 1-.24-1.187m-52.801 55.173v.009c-.109.051-.197.097 0-.009m49.864-56.518c.021.268.051.529.068.815-.283.038-.552.018-.846.038-.177-.13-.4-.277-.644-.408.03-.235.03-.513.03-.808.277-.025.521-.113.799-.202.206.219.421.37.593.565m80.635 17.021c-.214-.551.017-.219-.399-.56.26-.651.984-.614.967-1.981.278-.013.551-.013.829 0-.105 1.877-.589 1.044-.551 2.541-.278-.008-.56 0-.846 0m-123.447-10.173c.193.552-.236.228.475.729.669-.846 1.359-1.721 1.452-2.411.164-.093.324-.168.492-.253.875.53 1.06.522 1.195 1.212.862.315.134.202 1.216-.245-.139-.546-.064-.277-.493-.967.493-.316.968-.648 1.452-.959-.24-.084-.484-.168-.732-.244.631-.555 1.085-.707 1.7-1.207.159.239.311.483.483.719.627-.227.261.252.728-.48.791-.084 1.443.623 2.154.728.615.585.615.484.741 1.696.244-.093.475-.168.719-.253 1.519-.408 1.75 1.279 2.903 1.696 2.377.837 10.123-2.311 12.786-.96.075.076.168.147.252.231.236-.315.476-.63.711-.967h.249c.344 1.22.576 1.381.967 2.664 3.067-1.491 5.124 2.494 6.997 2.882.967-.237 1.927-.463 2.903-.711 1.489.866 4.119 1.825 6.033 2.885.475-.399.959-.799 1.443-1.199 2.999.547 4.157.837 7.245 1.199.151-.231.328-.475.475-.707a27.298 27.298 0 0 0-1.199-.252v-.24c1.506-.589 3-1.522 5.065-1.686h2.428l2.962-.99h1.229l2.238-.492 1.721 1.734.866-.867 2.112.362 2.701 2.242s2.684 2.322 2.579 5.247c-.092 2.448-1.077 5.78.72 8.452-.484.396-.968.812-1.452 1.211.732.736 1.237 1.187 2.179 2.647-.496.324-.972.643-1.447.967-.08.791-.092.707.72 1.212-2.209 2.503-2.365 7.699-2.243 13.102 1.788 5.456-.703 12.415.959 17.101 1.443 4.132-1.043 11.318 2.104 12.041-.682 1.994 1.91 23.758 1.91 23.758 0 2.395-.336 2.563-1.271 3.8-.399.808-.256.101.312 1.266-1.389 2.15-3.215 4.093-3.791 6.971-1.111-.572-.391.181-.959-.946-1.103.383-1.241.521-1.902 1.258-.463.858-.093.042.324.95h-5.066c.476-.597.56-.563 1.271-.95-.214-.522-.429-1.052-.644-1.582-1.194-.122-2.293-.051-3.168.946-1.519-1.712-1.236-4.927-3.483-5.065.214-.206.42-.425.635-.635-.644-.862.047-.758-1.59-1.254.147-1.321-.046-.476.648-1.599h-1.59c.243-.833-.337-1.044.307-2.213h-1.259c-.075-4.792-3.622-12.642-5.696-18.377-.505-.488-.345-.353.316-.626-2.727-2.293-10.329-6.232-13.316-4.439V12.84c-.623.417-1.258.846-1.902 1.27-.593-.925-.26-.332-.307-1.589-3.071.306-11.881-2.08-14.919-3.8-.201.097-.416.215-.614.316-1.649.126-1.077 1.064-1.077 1.064-2.777 1.658 2.794 13.872.248 18.259.223.316-.248-.038-.038.283-.622-.211-.593.239-1.219.033.912 3.509-.447 13.513-4.763 15.84-1.464 1.056-1.065-.316-1.065-.316-1.266.202-2.532.43-3.798.631-4.898-2.372-7.077-8.574-10.14-12.987-1.94-2.798-4.948-2.516-5.066-7.611h-1.573c-.614-5.335-1.073-12.113-2.225-16.778 0 0 2.065-11.191.307-14.89.997-.782-.135.186.323-1.266.105-.055.215-.11 0 0-.075-.236.169-2.625.505-5.352h-.214c.101-9.516 2.074-21.14.248-27.843-.547-1.96 5.638-10.451 6.513-10.863m14.321 38.496h.008c.122 1.111 1.166 2.045 1.015 2.714 1.582.846 1.156 1.683 2.73 2.532v.623c-.934.425 3.008-.627 2.436 0 5.376-1.173 29.017-4.784 33.358.332.417-.218.838-.428 1.267-.639-.497-.278.513-2.579.333-5.562l.26-.008c.429-1.532-.046-2.932.274-3.256.168-1.448.155-1.679-1.212-2.155.03-2.01.231-4.316.724-5.082-.48-.32-.968-.631-1.443-.96a85.85 85.85 0 0 1 .719-1.682c-.391-.328-.812-.648-1.212-.972.169-.509.185-.345.728-.968-.147-.084-.328-.168-.475-.248-1.052.892-2.095 1.784-3.139 2.676-.875.496-.984.113-1.935-.488-.236.631-.476 1.279-.736 1.919-2.441.676-5.6 1.455-7.72.239-.076.417-.148.812-.236 1.216-2.445-.164-4.889 1.507-7.001-.488-.467.409-.968.808-1.443 1.211-1.758-1.447-4.691-2.377-7.493-2.178v-1.203c-1.085.576-1.54.361-2.89.483-.287-1.772-3.745-2.516-6.993-2.891.068 2.92-.113 9.542.076 14.835m21.911-46.935c-.273-.21-.551-.387-.812-.589.092-.193.244-.404.383-.598.336.144.677.206 1.031.345 0 .286.004.547.042.816-.227.026-.442.026-.644.026m-3.328-1.725c0-.059-.025-.122-.025-.193.286-.127.547-.282.854-.388a.902.902 0 0 0 0 .366c.829.215.782.261 1.271.753-.307.168-.568.278-.829.421-.374-.521-.568-.707-1.271-.959m5.777.303c-.791-.778-.837-.833-1.679-.602-.324-.353-.278-.26-.416-.938.168-.358.383-.69.568-.985.298-.008.567-.033.82-.05 0 .37.046.799.046 1.17.4-.101.791-.278 1.22-.396-.092.976-.366.522 0 .976-.244.745.017.4-.559.825m-.421.959c.151.093.29.135.446.202.004.332.013.665.013 1.019-.27-.035-.531 0-.795-.051a1.385 1.385 0 0 1-.434-.169c-.059-.101-.151-.269-.227-.383.214-.062.404-.13.597-.197.152-.126.291-.278.4-.421m1.287 1.557c.278-.017.539-.017.8-.026.029.118.029.16.029.219-.215.109-.4.265-.627.413a2.752 2.752 0 0 1-.185-.413c-.017-.059-.017-.126-.017-.193m1.153-2.596c.215-.055.429-.131.635-.181.055.143.148.227.194.387-.109.109-.261.253-.37.404a18.714 18.714 0 0 0-.459-.61m4.552 1.097c0 .077 0 .131.021.215-.412.417-.336.131-.589.784-.302 0-.564.029-.854.029.063-.274.139-.53.185-.791-.075-.366-.138-.656-.206-.981a10.64 10.64 0 0 0-1.069-.176c.24.248.463.483.661.761-.016.214 0 .396.029.589h-.828c-.4-1.363-.181-1.481-.703-2.309.013-.077.013-.169.013-.199 1.637.383 2.087 1.38 3.34 2.078m-15.158-39.816h-.652c-.047-.193-.131-.383-.194-.538.261-.202.555-.304.829-.459 0 .332.017.66.017.997m81.014 42.796.231-.047c-.034.097-.139.106-.231.047m-73.462-59.128a2.863 2.863 0 0 1-.615.416c-.029-.147-.155-.261-.197-.391 0-.054 0-.127-.034-.152.299-.042.585-.05.846-.05zm-11.288 15.027c.021-.206-.025-.394-.025-.605.492.122.967.235 1.443.391.029.299.046.661.029.959-.235.114-.459.241-.711.367-.025 0-.055 0-.118-.013-.096-.93.139-.736-.618-1.099m112.9-58.563c-.371.13-.724.277-1.09.403.101.408.168.8.278 1.161 0 0-.139.354-.324.842-.11-.013-.147-.013-.307-.013 0 .241 0 .467.021.644-.375.922-.787 2.058-.959 2.71-.674 2.94-6.278 8.427-5.663 10.568-2.765.232-1.948 4.674-4.805 5.015.24.282.429.543.644.774-2.255 1.103-5.954 9.113-8.394 7.871-1.022.283-.938.531-1.598 1.015.156.833.324 1.695.463 2.541-1.873-.055-1.852.261-2.205 1.447-.392-.143-.821-.244-1.233-.404-.164 1.334-.828 2.987-1.981 3.417-.278-.395-.552-.774-.812-1.17-.156.917-.249 1.826-.362 2.756-1.965 1.489-3.101 1.947-5.272 3.277-.723.56-.438.496-.353 1.599-.429 0-.82 0-1.246.009.034.319.034.638.072.984-1.544.648-4.767 2.583-5.474 4.085-.782.538.123.959.661 1.905-.938.968-1.106.291-1.182 1.234-.261-.022-.551.02-.829.008-.008-.055 0-.13 0-.206.093-.135.122-.232.215-.362-.4-.576.538-.412.997-.623-.429-.142-.812-.244-1.238-.412.186-.093.426-.253.611-.395-.064-.144-.173-.358-.215-.535-1.123.531-1.468 2.525-1.998 4.153-.093.084-.232.113-.366.206-.875-.004-.615-.29-.783.812-1.274.185-19.033 11.591-19.542 12.403-.152.16-.291.295-.442.417 1.809.66 4.325 2.3 5.263 3.844.783-.408.261.084.383-.786 2.133.404 3.959 1.75 6.399 2.591.539.27.025.03 1.014-.21.354.399.716.762 1.069 1.178v-.026a8.7 8.7 0 0 0-.084-.176v-.231c.084.037.159.079.227.105.686-1.329 1.275-1.317 3.101-.917a57.565 57.565 0 0 1-.384 1.956c.371-.122.699-.269 1.044-.416-.105-.29-.16-.649-.227-.981h.828c.228 1.822.308.77.03 2.344.139 0 .299 0 .429.013.371-.737.774-1.482 1.174-2.201-.236-.084-.421-.126-.669-.194.295-.214.576-.399.863-.576.197-.038.403-.013.58-.046-.088.651-.105.908.446 1.388.156.101.278.223.429.353h.202c-.286-.82-.139-.487-.639-.967.454-.068.959-.126 1.451-.219.232.648.43 1.288.661 1.961.046 0 .122 0 .206.009.038-.59.071-1.179.118-1.793 1.733.189.736.021 2.684-.257.138.446.307.884.429 1.368.997-.455.614-.186.598-1.195.921.18 1.443.412 1.876 1.148.812-.45.307.093.412-.799 2.68.257 2.373.316 5.112-.122.37.724.56.66.644 1.75.921-.345.075-.231.799-.782.505-.308 6.13-.06 7.001.214.568.417.311.047.618.791-.959.012-1.922.047-2.869.047-.114.037-.27.037-.421.037 1.473.475 2.916.989 4.38 1.494.164.749-.038.673-.391 1.371.016.337 0 .682.016.973.076.029.139.02.215-.009.782-.618.858-1.056.728-2.579.622-.244.286.009.622-.392.476-.004.968-.004 1.46-.004-.538 1.296-.323 1.325.875 2.323a.27.27 0 0 0 .198 0c-.16-.976-.235-.808-.66-1.389-.021-.294-.021-.622-.021-.976.483.135.967.252 1.434.387-.063.357-.092.758-.168 1.17.139.051.273.135.4.185.076-.383.105-.783.197-1.173.998.129.644.352 1.237-.047.27.093.53.253.804.399-.804.249-1.043.317-1.397 1.006a1.502 1.502 0 0 0-.421.223c.299.176.568.375.85.551.185.522.164.076-.181.585a.948.948 0 0 0 0 .214c1.317.131 2.264-.151 3.093.505.403-.505.357-1.001.13-1.708 1.658.396 1.443 1.174 3.147 1.241.261.064.505.156.795.164 0 .161.034.283-.012.421.429-.21.803-.408 1.249-.597-.021 2.322-1.005 3.113-1.725 4.746.244.656.429 1.287.673 1.952.261-.151.509-.261.817-.404.121.118.26.235.395.378-.997.425-2.011.817-3.021 1.246.181 1.018.261.807.076 2.549-.875-.025-.846.042-1.258-.37-.185.026-.408.026-.601.026 0 .521.016 1.064.016 1.548 1.843-.484 3.008-.245 4.944.513a2.4 2.4 0 0 0 .046.753c-.829-.244-.446.017-.862-.552-1.456.383-1.658 1.137-3.438 1.44.193.538.429 1.048.644 1.56.816-.408.753-.66 1.998-.82-.77 1.557-4.329 5.04-5.978 5.865 0 .189 0 .358.008.573 1.578-.623 3.147-1.259 4.679-1.843-.328 1.636-1.149 1.59-1.119 3.722-2.243.644-4.452 1.301-6.706 1.923 0-1.383 1.809-2.154 2.999-2.621-.008-.197-.008-.399-.008-.585-1.027.257-2.84 1.385-4.902 1.482-.008-.43-.025-.825-.05-1.187 1.523-.235 1.178-.589 2.259-.231.084-.148.13-.29.206-.442 0-.236-.017-.497-.017-.749-1.177.135-1.119.409-1.232-.967-1.713.665-5.364 2.221-7.115 1.75a6.031 6.031 0 0 1-.661-.421c.152-.046.291-.11.4-.177a1.24 1.24 0 0 0 .169-.403c-.522.012-1.044.033-1.611.058-.03.454-.093.909-.169 1.367.198.047.442.106.597.177.261-.501-.155-.307.614-.614.022.45.03.922.047 1.396-1.304-.567-2.625-1.135-3.929-1.703-.064-.025-.148.025-.249.025-.021.639.127.934.249 1.027l-7.014 1.422-6.188.534c-1.444.438-1.688.543-1.743-1.014-.828.232-1.75-1.119-2.524-.883 0 .071.017.118.017.168.841.294.488-.05.812.791-.244-.084-.53-.135-.799-.19-.03-.029-.047-.029-.076-.046l-.215.29c.16.055.324.102.493.148.021.244.021.53.021.757-1.351-.185-1.25-.555-2.432-.105-.093-.366-.168-.644-.231-1.022-.421.395-.253.109-.384.816-1.72-.076-1.842-1.775-2.457-1.044-1.502.135-2.031.169-2.284-.513-.13-.134-.269-.278-.4-.417-.463.682-.109.678-1.013.99-.766-1.09-10.544-.018-11.482-1.09l-4.497.147c.046-.307-17.561-3.383-17.498-3.711-5.941-2.163-11.41-4.018-14.898-3.904-.021-.067-.021-.135-.021-.177.236-.177.446-.299.614-.437-1.169-1.604-3.315.344-4.329-1.688-.585.447-.416.552-1.228.829 0-.337-.017-.66-.017-.967h-1.043c.025.214.025.391.046.614.845 1.09 1.657 1.388 3.088 1.881-.034-.27-.156-.531-.185-.775.888.358.492-.029.383.762 1.06-.135 1.081-.025 1.106 1.363-.093.037-.156.139-.215.21-1.905-.479-3.033-2.082-4.577-1.691-.059-.58-.307-.21.194-.58-.577-.833-.501-.248-1.612.004.009-.476-.054-.206.177-.766-2.764-.614-3.5-.913-6.416-2.226-.597-.353-.278 0-.421-.568-.883-1.09-5.006-1.274-5.006-3.429-.421.126-.804.253-1.22.405 0-.321.008-.653-.03-.997-.383.155-.799.323-1.211.441.076-.993-.055-.782.589-1.187-.009-.214 0-.386-.021-.597-1.014.299-1.397.051-1.83.648-1.057-.526-.182-.698-1.271-1.157-.846-1.048-1.006-1.358-2.074-.782-.354-.421-.383-.636-.429-1.528-.968.13-1.936.278-2.861.438-.569-1.498-.715-2.331-.707-4.313-.408.206-.82.409-1.237.619-.375-.547-.543-.719-1.237-.972.61-1.351.194-1.409-.088-3.147-.286.165-.547.278-.825.433-.198-.341-.076-1.783.568-1.989-.399-.299-.29-.261-1.005-.383.546-3.038-1.389-3.753-2.062-6.64-.379.042-.799.16-1.207.195v-.195c.206-.222.391-.399.593-.596-.737-.581-.737-.884-1.46-1.54.463-.354.13-.161.383-.795a3.074 3.074 0 0 0-.227-.375c1.224.253.403.227 1.064.732h.206c-.029-.177-.029-.379-.038-.556-.282-.277-.53-.538-.803-.778-.093-.088-.614-1.91-1.107-2.953-.008-.177 0-.375-.029-.585.812.084 1.657.337 2.461.66v.084c.071-.029.092-.029.13-.012.564.274 1.09.572 1.528.934.807-.521 1.169-.707 1.405-1.779.82.231 1.657.492 2.465.719.009-.329 0-.673-.025-.968.139-.075.307-.126.416-.21.552.53 1.145 1.018 1.666 1.54.497-.833.404-.716.177-1.405.412-.186.821-.383 1.224-.56 1.322.093 1.49.483 2.289 1.081a57.57 57.57 0 0 0 1.595-1.603c1.498.114 1.784.522 2.688 1.136.968-.568.299-.652 1.611-.82-.029.252-.109.488-.168.773.614.009 1.212-.007 1.826-.046-.076-.239-.139-.483-.223-.774 1.191.253 1.376 1.166 2.049.156.307.126 4.359 2.264 4.359 2.264.807-.354.248-.333.82-1.002.362.228.837.388 1.405.501.026.038.026.046.047.071a.553.553 0 0 0 .071-.058c4.052.791 12.087-.367 12.622.938.631.079.269.323.631-.189 1.228.168 1.443.437 2.078 1.127 1.351-.943 3.21-1.077 5.537-.513.029-.514.105-1.039.168-1.565-.416.126-.816.264-1.228.42-.084-3.21-.77-4.83-1.46-6.87-.068-.076-.227-.131-.383-.181-.16.526-.354 1.044-.551 1.578-.261 0-.564-.009-.825.013.395-.711.744-1.486 1.178-2.193-.13-1.114-.248-1.114-1.275-1.32.337-.501.215-.366.783-.627.008-.539.029-1.035 0-1.574-.736.391-.249-.126-.606.623-3.139-1.187-3.046-6.017-6.172-7.38-1.052-1.211-.635-.589-2.019-.117-.228-1.654-.812-1.44-.084-2.39-.884-1.565-1.708-3.101-2.584-4.688-.875-.394-.454-.74-1.022.068-.614-.345-1.944-7.346-3.892-8.801.009-.127-.046-.24-.046-.388-.896.219.063 2.087.29 2.765-.265-.021-.568.008-.828 0-.215-.867-.451-1.695-.644-2.546a3.941 3.941 0 0 0-.829.43c-1.473-1.254-1.157-4.57-1.734-5.1-.046-.252-.046-.521-.071-.757.778.236.425-.042.854.564.147-.16.278-.261.383-.421 0-.467-.046-.917-.013-1.362-.631.336-.323.365-1.224.626-.021-1.127-.042-2.255-.084-3.37.13-.067.294-.126.416-.189.122.239.261.5.429.766.24 0 .522-.013.8-.013.231-1.212-.615-.93.176-1.582a97.577 97.577 0 0 1-.668-1.759c-.068-.025-.123 0-.215.009-.046.766-.093 1.557-.139 2.386-.475-.14-.934-.266-1.426-.392.231-1.01.551-1.312.551-2.768.307.058.661.122.993.167.076 0 .168 0 .219.009-.244-1.926-1.027-3.286-.088-3.921-.371-.807-.51-.875-1.263-1.177-.046-.636-.059-1.322-.075-1.978.155-.042.286-.135.416-.177.442.476.459 1.127.459 2.146.063-.013.138-.022.214-.022.307-.407.231-1.043.156-2.166 1.136-.459 1.334-.69 2.209-.437.075-.304.168-.619.24-.981 1.005.248 2.183.686 2.675 1.304.383-.534.248-.323.194-.942.235-.055.522-.03.782-.055.307 1.684.589 1.557 1.893 1.33.018.48-.012.917.034 1.363.139.092.261.139.413.227.185-.27.383-.547.576-.816 1.497 1.86 5.095 5.617 5.566 7.99.261.084.568.248.812.332.198-.538.353-1.039.589-1.561.177-.093.408-.169.606-.206.155 1.59.77 3.252 1.961 3.862-.211.21-.426.413-.623.614 0 .051.017.127.017.181 1.026-.298.887-.345.963-.971.303-.085.564-.173.846-.257.214 1.123.521 1.283 1.258 1.77-.123.884-.232.842-.568 1.376 1.59.602 7.446 8.129 7.476 10.477.698.055.206.223.585-.392.736.362.458-.025.635.959-.522.084-1.098.144-1.637.232-.021.206-.113.391-.198.61.018.059.018.135.03.177.69-.388.24.117.602-.607 2.486.573 3.929 3.442 5.095 6.034v.761c-.261-.008-.568 0-.8.03-.244-.841-.484-1.725-.744-2.571-.038 0-.093-.004-.19 0-.046.493-.092.947-.156 1.406h-.828c0-.367 0-.791-.009-1.183-.235.017-.42 0-.605 0 .075.408.138.816.223 1.183.744.837 1.619 1.467 3.109 1.56-.186.219-.4.497-.594.749.547.252 1.132.514 1.666.745.653-.896 1.704-1.405 2.365-2.378-.186-.133-.408-.277-.585-.407.53-.072 1.06-.147 1.616-.207 2.713-3.424 5.431-6.823 8.14-10.248 1.389-1.25 4.292-1.624 5.428-4.035.382 0 .812 0 1.212-.029-.185-.968-.101-.699-.615-1.145 1.044-.429 1.843-.808 3.038-1.274-.345-.623-.438-.531-.837-.968a72.31 72.31 0 0 0 1.821-.652c.244-.299.047.008-.025-.4.606.022 1.191.009 1.834-.038 1.469-.689.938-2.44 3.009-2.432.046-.306.117-.66.185-.967-.459.151-.951.307-1.427.429.484-1.624 3.808-2.356 4.675-1.683.13-.589.222-1.203.362-1.763-.341-.185-.678-.374-1.061-.567.013-.077.013-.131.013-.202 1.228-.312 1.59.08 2.671.332-.58-.762-.614-1.359-.875-2.142.156-.075.261-.143.4-.193.753.488.53.606.463 1.758.214 0 .399-.021.626-.021.034-.391.101-.799.169-1.174.362-.773.269-.168-.227-.799.568-.412.235-.151 1.018 0 .072-.412.118-.807.16-1.182.433.092.845.214 1.262.333 1.464-.354 1.763-1.793 2.794-2.596.496-1.023.449-.291-.047-1.157.829-.11.543-.11 1.242.126.092-.812.294-1.001-.03-1.406.538-.374.353-.21 1.043-.197-.168-.358-.324-.783-.475-1.14 1.275-.817 2.68-1.208 4.068-1.885.707-.993 1.149-2.722.139-3.336-.046-.261-.046-.56-.046-.791 1.409.231.597.345 2.057.147-.295-.047-.555-.135-.816-.177.185-.4.353-.808.568-1.211.408.122.828.26 1.212.374.025-.383.025-.762.016-1.165.122-.084.291-.148.354-.219.244.341.458.656.69 1.001.029-.564.075-1.06.138-1.573-1.64-.055-1.32-.253-1.813.42a4.07 4.07 0 0 1-.644 0c-.045-.067-.122-.134-.197-.214.29-.332.53-.653.812-.989 0 0 6.016-5.419 6.618-5.848.521-.783 1.056-1.59 1.565-2.381.568.193 1.09.379 1.687.547h.16c.008-.43 0-.808-.022-1.2 2.071-.084 1.275-.525 3.055-.634-.093-1.161-.016-1.983 1.195-2.411 0 .408.017.774.017 1.157 1.073.135 1.245-.009 2.032.37.471-.669.147-.64 1.022-.977.017.035 4.468-.521 6.341-.142.037-.463.138-.947.151-1.389.286 0 .585-.033.829-.016 0 .588.046 1.157.063 1.771.614-.224 1.211-.421 1.826-.627v.206c0 1.065 1.872 1.035 3.521 1.09-.067-.253-.143-.547-.223-.808.265 0 .539 0 .817-.021-.018.408.02.811.02 1.212 1.208-.013.762-.131 1.852-.443v.379c.543.312.239.051.046.606.753.379.353-.084.597.77.278-.189.556-.425.817-.614a.455.455 0 0 0 .214 0c1.212 5.604-.155 7.859 1.098 10.632.387.933-1.75 5.747-1.022 6.706m-46.603 103.514c.218.067.446.147.668.21-.021-.143-.021-.278-.021-.425-.193-.097.076.047-.075-.551a2.668 2.668 0 0 0-.585-.025c0 .269 0 .555.013.791m20.539-125.219c0 .173.017.29 0 .399-.261 0-.538 0-.799.026.387-.425.093-.21.799-.425m-.959 2.386c-.13-.367-.307-.775-.437-1.158.298.076.559.093.799.177-.139.522 0 .514-.362.981m3.437-1.65c0 .193.009.4.009.623-.244-.017-.551 0-.8.025.383-.648.017-.345.791-.648m-12.823 18.381c-.151 1.081-.417 1.183-.783 2.012-.399.071-.799.155-1.211.239.505-.884.98-.939 1.182-2.213.269-.02.53-.02.812-.038m-68.35 56.141h-.459c-.092-.164-.164-.316-.248-.484.677.299.353.038.66.421.017.017.03.033.047.063m1.287-11.548c0 .126-.012.273-.012.365-.262.029-.539.063-.808.063.378-.428.054-.218.82-.428m-2.125-1.906c.14-.089.287-.139.409-.215.159.138.29.253.412.37 0 .353.033.674.033 1.002h-.828c0-.379-.026-.741-.026-1.157m-5.503-6.963a2.7 2.7 0 0 1-.012-.606c.337-.135.673-.282 1.01-.413.046.131.126.278.231.383-.139.093-.278.156-.421.224-.252.125-.547.268-.808.412m4.405 4.215c.017.476.034.914.047 1.372-.274.008-.56.025-.8.008-.134-1.288-.429-1.342-.69-2.34.286-.045.522-.133.8-.184.215.387.445.769.643 1.144m-2.545 20.927c.013.071.013.143.013.239-.168-.012-.4-.012-.615-.012v-.425c.215.08.426.113.602.198m-1.973-28.887c.282-.012.559-.042.837-.042-.399.615-.046.345-.799.626 0-.167-.03-.39-.038-.584m68.173-26.11c.022-.177 0-.387 0-.563.291 0 .568 0 .846-.026-.4.598-.034.308-.846.589m-21.982 20.363c.193-.26.387-.522.601-.783.274-.024.551-.024.829-.024-.063.193-.139.403-.215.609-.429.055-.828.131-1.215.198m-.812 1.027c-.224.193-.522.403-.8.601.4-.778-.075-.344.8-.601m4.396-4.435a16.138 16.138 0 0 1 0-.623c.27 0 .547 0 .825.018-.4.605-.042.328-.825.605m5.234-4.821c.378-.636.042-.35.791-.636-.004.198 0 .408-.004.585-.24 0-.53.029-.787.051m-23.434 21.936c.303.076.564.13.85.177-.308.126-.547.299-.808.42-.004-.197-.042-.395-.042-.597m42.615-40.296a1.358 1.358 0 0 1-.232-.416c-.004-.047-.004-.093-.004-.177.787.268.433 0 .829.567-.194 0-.425.026-.593.026m-59.385 18.423c.227.055.429.13.619.177v.194c-.173.029-.392.02-.619 0zm-3.101-2.293c.291.13.543.244.812.383-.269.13-.521.269-.799.429-.008-.29-.008-.543-.013-.812m-14.001-8.364c.033.143.046.261.046.387-.236.009-.534.009-.812.034.37-.421.055-.24.766-.421m71.846-3.744c.235.088.442.126.648.202a8.258 8.258 0 0 0-.795.416c.029-.248.113-.416.147-.618m1.018-.228c.278-.811.278-.896 1.229-1.169 0 .265 0 .522.017.749-.139.034-.278 0-.417 0a3.354 3.354 0 0 1-.829.42m-4.72 5.638c.16-.025.408-.025.576-.025.017.269 0 .53.017.782-.248.03-.522.03-.783.051.047-.274.114-.526.19-.808m1.161-1.22c0-.395-.034-.787-.034-1.195.391.042.699.009 1.031.009.122.055.307.139.42.21-.567.606-.496.782-1.417.976m-6.618 5.082c.122-.143.261-.273.416-.429.093.164.274.269.4.395-.185.153-.387.283-.601.43-.059-.147-.152-.253-.215-.396" style="fill:#110f0d;fill-opacity:1;fill-rule:nonzero;stroke:none" transform="translate(498.546 308.226)"/><path d="M0 0c-.399 1.102.526 1.893.526 2.986 0 .219-.004.43-.029.657.206.227.816 1.211-.047 2.806-.054.164-.1.358-.159.569.139.714-1.199 5.716-1.199 5.716-.228.523-.467 1.057-.707 1.65-.812 2.012-.038 2.958.479 4.843.244.858.215 1.711.097 2.579.072 1.509-.567 4.96-.567 4.96l.875.513c.147-.169-.914-.345-.875-.513-.283 1.312.454 1.658.53 3.063.138 2.347.445 4.577-.27 6.727 0 .173.008.34.008.501.109.665-.016 1.678-.277 2.684-.059.261-.114.53-.181.808v.008l.093.012a46.64 46.64 0 0 0-.261 2.377l-.025-.172h-.022l-.016-.046-.046.143c0 .042-.009.051-.009.075l-.009-.024-1.119 3.336s0 .02.018.063v.042h-.018c0 .025 0 .042.018.055l.046.332h-.026v.029h.038c0 .093 0 .156.008.241h.025c.022.049-.016.067-.016.067.016.059.038.13.063.193h-.034l.034.114h-.047c0 .054.022-.009.047.038.021.067-.017.109-.017.109 0 .093.059.151.076.197h-.046l.029.148h-.029c0 .093.075.198.084.227h-.038l.029.294a1.206 1.206 0 0 1-.197-.033c.017.564.037 1.115.062 1.522.022.031.03.077.047.106.088-.021.059-.038.143-.075l.038.188h-.093l.017.043c-.075.059-.063.126-.092.219.13.715.155.509.201 2.481a.104.104 0 0 0 .068.022v.046c.046-.008.046-.075.046-.075l.055.007a7.73 7.73 0 0 0-.156.729c0 1.48-.319 3.084-.56 4.169l.073.013-.018-.114c.06.017.114.026.186.05-.156.947-.522 1.877-.985 2.735-.038 0-.084-.008-.093-.025-.012.025 0 .08-.058.084v-.033l-.093-.051.013.084a.607.607 0 0 0-.181.417h-.08v.079c-.029.051-.076.089-.106.144-.008.038-.008.084-.008.122h-.067l.021.08h-.068a.952.952 0 0 1-.08.177c-.029.02-.058.024-.088.049l.013.068h-.038l.025.147c0 .038-.025 0-.025.122h-.067l.012.075c-.168.009-.113.073-.206.144-.038.013-.067.029-.122.042-.009.034-.009.051-.025.071h-.076l.008.047h-.067l.013.03h-.059v.029h-.055l.008.054h-.054v.039h-.072l.017.042h-.059v.033c-.046.017-.1.051-.173.08l.018.038c-.084.101 0 .113-.198.143-.008-.042-.033-.092-.033-.118a.252.252 0 0 1-.115.026l.009.05h-.093l.018.042h-.08l.016.05c-.076.03-.151-.042-.185-.05-.017.034-.017.059-.017.08-.042-.017-.088-.021-.134-.03l.012.068h-.075c-.03-.068-.047-.152-.063-.215-.042.063-.013.089-.168.097-.022-.042-.031-.092-.047-.118a.243.243 0 0 1-.114.026l.009.05h-.093l.008.042h-.071v.05c-.059.03-.143-.042-.168-.05l-.029.08c-.038-.017-.076-.021-.11-.03v.068h-.096c-.009-.038-.026-.076-.026-.126 0 0-.021.008-.047.008a.245.245 0 0 0-.029-.118.213.213 0 0 1-.105.026v.05h-.092v.042h-.064l.009.05c-.072.03-.147-.042-.194-.05 0 .034-.012.059-.012.08-.047-.017-.08-.021-.127-.03v.068h-.092c-.012-.068-.021-.152-.043-.215-.033.063-.007.089-.155.097-.016-.042-.029-.092-.038-.118a.254.254 0 0 1-.122.026v.05h-.092l.008.042h-.063v.05c-.076.03-.151-.042-.185-.05 0 .034 0 .059-.013.08-.046-.017-.093-.021-.13-.03v.068h-.085c-.007-.026-.007-.038-.007-.068l-2.133.177-.876-.185-.055-.316-.677.417-.749.113-1.09.358-.752-.013c-1.49.552-3.27.408-4.784.417-.951 0-1.847.067-2.701.244-.951.194-1.893.875-2.617.58-.766-.298-1.182-1.615-2.104-1.548-.757.059-1.186 1.902-1.948.522-.677.353-1.228.842-1.947 1.006-.783.168-.846-.366-1.338-.454h-.03a5.187 5.187 0 0 1-1.35.206c-3.147.126-5.856-1.431-5.856-1.431v-.009c-.206-.084-.363-.315-.375-.791a83.302 83.302 0 0 1-1.46-.042c-.106-1.741-.215-3.428-.261-5.17-.017-1.182-.476-1.919-.476-3.047v-2.048c0-1.574.43-5.204.43-5.204s.277-.635.277-1.742c0-1.106.152-1.565 0-2.524-.138-.947-.138.786-.138-1.418 0-1.414-.37-2.971.467-4.103.484-.634.913-.306 1.068-1.493.047-.295.047-.513.013-.723l-.03-.009s-.012-.135-.038-.328a.075.075 0 0 0-.02-.055h.02a21.326 21.326 0 0 1-.084-1.145c-.029-.087-.054-.167-.092-.264-.413-1.039-1.304-1.784-1.658-2.853-.299-.875-.631-2.136-.631-3.084-.021-1.11.555-2.056.555-3.159 0-1.106.291-.938 0-1.573-.29-.632-.555-1.726-.555-2.382v-3.155c0-.459.695-1.885.555-2.368-.1-.367-.323-.876-.383-2.273.031.038.06.093.093.139-.093-2.204.282-4.409.459-5.334-.029-.16-.076-.408-.109-.821a6.393 6.393 0 0 1 0-.998l.016.013c.009-.306.009-.635.017-.963l-.033-.034c0-.223.025-.445.046-.66 0-.266.008-.526.008-.745 0-.075.026-.126.038-.177a6.67 6.67 0 0 0-.03-.959c-.104-.749-.529-1.342-.677-2.078-.328-1.725.753-2.348.985-3.93.299-2.162-.122-4.602-.064-6.76.017-.762-.226-1.73-.088-2.47.03-.21.926-2.087 1.043-1.7-.479-1.539.636-1.557 1.586-1.519.047-1.376.392-3.361 1.999-3.307.589.022.749.997 1.439.997.594-.008.61-.829 1.3-.782.316.026 1.334.841 1.873.959.445.118 1.489.252 1.918.177 1.38-.261 2.057-1.174 3.707-1.11 1.434.042 3.062.802 4.471.412.985-.27 1.46-1.604 2.68.067.194-.295.669-.521.821-.875.37.311.77.656 1.127.968.829-1.751 1.136-.228 2.222.033.644.151 1.316-.37 2.095-.286.774.084 1.418.623 2.247.463.66-.155 2.011-1.591 2.457-.43.104.27.058.497-.076.72l.513-.029.543.113.985-.248.643-.113 1.287-.598 1.183.475 1.098.123.652.361.434.358-.186.462.105-.024 1.052-1.103.53-.151s.417.311.799.933c.401.649.139.649.139 1.435 0 .783-.521 1.099-.521 1.099s0 .942.122 2.524c.046.631.058.984.067 1.275h-.067c.618 1.821.496 3.209.366 3.937.016-.029.033-.055.038-.101C0-8.196 0-8.062 0-7.894v2.845c0 1.413.526 1.898.796 3.147C1.057-.636.396-1.111 0 0" style="fill:#ce1e25;fill-opacity:1;fill-rule:nonzero;stroke:none" transform="translate(665.424 205.477)"/></g><g clip-path="url(#b)" transform="matrix(1.33333 0 0 -1.33333 -281.527 493.417)"><path d="M0 0c.476.438.867.95 1.376 1.338.581.463.656.403 1.09.955.168.214.122.728.336.988.063.126.459.126.597.27.345.391.737.799 1.09 1.181.782.897 1.734 1.612 2.532 2.546 1.032 1.207 1.965 1.991 3.081 3.055.572.538.867 1.278 2.17 1.637 1.288.365 3.165.904 3.165.904s.871.564 1.594.564h2.596c1.01 0 0 1.624 2.444-.564 2.465-2.18 3.602-2.718 3.602-2.718s.454.177 1.594-.909c1.161-1.085 2.604-2.541 3.034-2.911.437-.362 1.295-.728 1.295-.728l1.304-.362s1.014-.374 1.17-.913c.135-.538.42-1.451.997-2.179.589-.732.728-.732 1.443-1.641.719-.909 1.014-.909 1.873-2.171.075-.11.138-.194.188-.278-.02.489.026 1.036.026 1.511l-.122-.147c-.354.454.337 1.556.875 1.422.703-.186-.307 3.038-.307 3.038-.66.344-1.283.782-1.897 1.106-.897.442-1.621-.03-2.339.744-.569.644-.602 1.25-1.238 1.742-.26.202-.483.008-.807.32-.168.164-.228.614-.328.723-.363.4-.716.569-1.238.943-.505.37-.887 1.013-1.447 1.376-.471.324-.946.416-1.376.769-.412.337-.589.859-1.11 1.057-.715.29-1.444.084-2.159.677-.307.26-.504.674-.761.926-.206.218-.484.336-.775.576-.323.307-.428.652-.706.967-.29.337-.627.485-.951.795-.521.489-.791 1.33-.858 2.037-.156 1.742-.232 3.278-.075 5.121 0 .075.012.176.012.281h2.41s3.362-1.152 4.406-1.657c-.115-.299-.215-.607-.354-.905-.475-1.064-1.014-1.649-.589-2.857.051-.177.093-.471.114-.664.156-1.557 2.717 2.953 2.726 2.962 0 0 .084.159.235.487.291-.084.569-.177.737-.319.429-.37-.215-.496.353-.867.585-.353 1.304-.177 2.18-1.464.875-1.262 2.456-2.356 3.024-3.442.585-1.093 1.296-1.456 1.296-1.456s.66-.168 1.351-.5c.025-.156.025-.29.042-.45.089 1.48-.585 5.091-.585 5.091-.075.403-.538.824-1.077 1.194h-.088c0 .022-.017.042-.017.068 0 0-.008 0-.008.029h-.114c-.017.017-.025.047-.034.063h-.067v.038h-.055v.046c-.013.009-.038.017-.059.038v.013c-.614.403-1.245.74-1.523 1.01-.736.643-1.38 1.455-2.023 2.255-.046.009-.084.038-.139.038-.029.097-.046.168-.076.231-.11.152-.232.29-.294.374h-.122c-.013.08-.046.131-.077.186-.197.139-.428.168-1.026.197-.475.017-.908-.1-1.236-.038l-.829-.104s-3.084.773-3.11 1.135c-.197.261-.412.513-.736.644-1.351.559-2.684.636-4.114.636h-.783c-.139.176-.345.344-.623.698-1.211 1.564-.849.353-.71-.698h-3.072l-1.296-.186h-1.742l-1.737-.551c-.572-.177-.429.365-1.14-.552-.732-.9-.594-1.265-1.305-2.001-.732-.716-1.013-.54-1.443-.901-.429-.37-.429-.185-1.005-.37-.585-.177-.875.185-1.443-.177-.585-.349-.585 0-1.3-.547-.345-.249-4.48-2.074-4.456-1.977-.062-.472-.445-.783-.631-1.141a.977.977 0 0 1-.093-.269c-.058-.475.245-.779.299-1.266.072-.556-.496-2.213.215-2.466 1.653-.53 3.908 2.138 5.398 2.659 1.519.531 2.886 1.481 4.199 2.638.698.614 1.35 1.275 2.229 1.62 1.015.404 1.843.269 2.794 1.043.985.782 1.872.985 3.033 1.435.56.223 1.212.501 1.865.72 0-.627.016-.959-.244-1.41-.371-.719-1.688-.568-.968-1.948-.905-.732.062-1.826-.223-2.894-.728-.039-1.283-.724-1.94-.934-1.636-.564-2.688-1.195-4.106-2.44-1.208-1.103-2.402-1.238-3.837-1.659-1.359-.386-2.511-1.892-3.509-3.028-.551-.648-1.153-1.397-1.86-1.687-.605-.265-1.51.008-2.069-.316-.598-.345-.8-1.263-1.276-1.733-.458-.467-.979-.644-1.413-1.178a45.084 45.084 0 0 0-1.044-1.301c-.113-2.208.262-4.442.455-5.389.13.455.345-.067.85.249.261.155.631.231 1.001.483C-.913-1.068-.45-.425 0 0m.261 53.81c.577-.775.408-2.369.408-3.274V38.739c0-1.358-.286-2.743-.093-4.105.106-.598.468-1.044.552-1.566.046-.379-.151-.959-.131-1.161.211-1.624 1.313-1.556 1.872-2.478.047-.063-.235-.484-.177-.66.085-.219.27-.101.388-.307.088-.182.664-.838.833-.913.5-.228 1.136.016 1.712-.018.333-.02.43-.512.829-.378.277.088.232.564.429.673.816.476 1.35.215 2.176.143 1.093-.114 2.229.063 3.365-.03h3.379s.399-.744 1.199 0c.795.753 2.776 1.258 2.776 1.258s-.597 0 .799.754c1.405.761 2.803 4.767 2.991 5.516.203.761.203 1.522.203 1.522V50.789l-.391 1.502-.61 1.249c-.438.935-2.024.396-2.332-.429-.213-.597.169-.47.232-.967.047-.413-.025-.791 0-1.162.004-.151-.185-.361-.185-.588.013-.274.383-.459.374-.72-.038-.551-.496-.698-.543-1.072-.138-1.544.973-3.686-.997-3.518-2.183.177-4.19.37-6.327.808-.096-.194-.505-1.036-.736-1.085-.366-.051-.85.647-1.325.74-.531.084-1.254-.261-1.666-.669-1.174-1.115-1.09-2.638.567-2.638h8.949c.707-.084 1.918.084 2.441-.606.505-.686.428-2.465-.157-3.079-.652-.682-2.086-.321-2.869-.321H14.604l-1.397-.239-.383.239-.597-.5h-1.015l-.399.5h-2.58l-.795-.5-.391-1.257.989-.249h1.796c1.195 0 2.087.362 3.375-.198 1.245-.563 1.001-.791 2.25-.286.729.295 1.465.337 2.226.252.206-.033.253-.387.501-.387.235-.008.656.303.849.253.363-.118.455-.185.421-.754.009.064.248-.054.278-.079-.152-.787.29-1.33.214-2.045-.277-.025-.791.126-1.026-.008-.501-.278-.691-.985-1.136-1.212-.37-.21-1.06-.24-1.397-.4.092.047-.214-.454-.294-.517-.429-.294-1.103-.135-1.578-.135H7.838l-1.199.749s.198.492-.597 1.01c-.8.488-1.389.749-1.389.749l-.391 1.498h.391l1.203 1.51.383 1.014-1.586-.513-.601.749-.589.756v2.508c.261.653.736 1.473.664 2.188-.042.53-.698.82-.74 1.414-.046.673.656 1.51.98 2.023-1.026.782.071 1.275-.016 2.125-.06.631-.749.744-.699 1.582.026.37.622.496.686.875.122.908-.568 1.497-.64 2.306-.067.933.354 1.539.531 2.381.643.21 1.199.193.685.227-3.05.114-5.687-1.33-5.873-1.439.383.126.938-.219 1.22-.614m-1.249.597zM12.021 4.632c-.287-.682-.287-1.704-.287-2.217 0-.505-1.195.689-.114-2.205 1.082-2.895.401-1.868 1.082-2.895.677-1.001.938-1.691 1.472-2.027.547-.35.678-.517 1.35-.517.678 0 1.351-.161 2.02-.161h1.75c.682 0 1.359-.517 1.897.161.536.694 1.351 1.543 1.351 1.543s1.473.841 1.733 1.351c.283.5.552.345.552 1.014 0 .681.139.513.277 1.531.123 1.01.123 1.01.123 2.045 0 1.018-.123 1.347-.4 2.032-.269.677-.812 1.527-.812 1.527l-.538 1.528.138.685-1.35.841-.952.682-1.467.854h-.682l-1.62-.164-.53-.189-1.081-1.014-1.081-.514s-1.212.345-1.612 0c-.416-.319-.416-.319-.416-1.181 0-.846.416-1.183 0-1.864-.4-.673-.535-.177-.803-.846m2.982-2.209c0 .253 0 .765.126 1.111.135.332.215.075.395.416.215.337 0 .505 0 .913 0 .429 0 .429.215.606.202.169.8 0 .8 0l.538.253.538.512.274.077.791.084h.345l.745-.421.466-.336.661-.43-.059-.345.262-.745s.273-.429.403-.778c.131-.319.193-.496.193-1.001 0-.501 0-.501-.062-1.014-.06-.509-.131-.425-.131-.77 0-.32-.13-.243-.265-.496-.138-.245-.875-.682-.875-.682s-.4-.416-.661-.749c-.277-.345-.601-.088-.95-.088h-.863c-.345 0-.673.088-1.014.088-.336 0-.396.08-.656.249-.278.176-.408.5-.753 1.014-.337.496 0 0-.538 1.434-.539 1.435.075.846.075 1.098m-2.962-13.064c1.427.838 2.71.838 4.245 1.124.977.168 3.53 1.187 4.098-.24 1.174.766 2.894-.071 4.174-.383.955-.239 1.421-1.177 2.305-1.565.791-.361 1.313-.164 2.108-.799.202-.16.211-.576.425-.698.122-.064.353.109.497.02.66-.412 1.03-.849 1.673-1.333.199-.139.569.16.754 0 .274-.194.504-1.014.66-1.35.236-.611.396-1.507.842-2.104.597-.82 2.381-2.293 3.24-2.469.689-.148 1.649-.708 2.502-.733.619 1.817.505 3.215.358 3.963-.168.43-.281.858-.572 1.288-.353.522-.892.483-1.246.93-.244.281-.029.765-.412 1.148-.714.707-2.103.854-2.94 1.355-.922.53-1.405 1.809-2.327 2.229-.804.388-1.763-.1-2.516.337-.37.228-.605.8-1.031.968-.412.147-.934-.113-1.355-.009-.929.236-1.804 1.061-2.772 1.376-1.119.375-2.065.459-3.239.459h-1.881a90.19 90.19 0 0 0-5.086.155c-.484.038-1.119.383-1.574.333-.5-.059-.354-.269-.808-.463-.618-.261-.875-.067-1.438-.101-1.002-.05-.363.286-1.032-.812-.306-.492-.798-.761-1.106-1.25-.274-.479-.151-.845-.572-1.219-.101-.119-.24-.164-.362-.194l-.206.69-.426.387s-.904-.05-.576-.665c.055-.092.089-.206.127-.32-.223.038-.455.047-.648-.033-.328-.143-.569-.598-.943-.733-.521-.176-.904-.062-1.451-.34-.559-.29-.85-.682-1.342-1.073-1.153-.959-3.686-.295-3.761-2.575.155-.097.202 0 .37.084l.198.093c.017-.042 0-.093.017-.151l.138-.114.569-.433.58-.177h1.152l.876.37s1.149-.193 1.872.177c.719.362 1.725 1.09 2.162 1.46.139.113.4.244.686.374-.008-1.195-.164-2.423-.299-3.407-.307-1.969-2.027-6.24.535-6.53 1.473-.202 2.364.724 3.648 1.043 1.371.337 2.776-.753 4.072-.951 1.123-.21 2.327.151 3.408-.092 1.384-.345 2.364-1.069 3.87-1.069 1.057 0 2.853.463 3.744-.412.523-.505.476-.943 1.229-1.304.615-.295 2.331-.9 2.823-1.733l.53-.042.543.126.985-.248.652-.106 1.329-.623 1.196.488 1.088.135.653.354.437.353-.177.48-.971.277-.341-.193c.341.193-3.075 1.144-3.113 1.186-.585.421-.602 1.304-1.107 1.818-.568.563-1.241.475-1.901.756-.556.262-.893.846-1.431 1.163-.614.352-1.35.016-1.93.29-.569.269-1.086.643-1.006 1.544-.871.374-1.738.311-2.495.328-.783.008-1.153.21-1.872.412-.425.109-1.043.042-1.49.025-.215-.025-.862-.319-1.031-.261-.319.093-.365.538-.673.653-1.077.399-1.889.222-2.903.277-1.295.088-3.643-1.006-4.712.392 0 0-.766 1.005-.782 1.573a20.89 20.89 0 0 1-.143 1.489s-.732 1.397-.9 1.91c-.06.223-.093.328-.122.438l1.582 1.266c.698.409 1.38.804 2.069 1.211" style="fill:#fff;fill-opacity:1;fill-rule:nonzero;stroke:none" transform="translate(625.46 214.531)"/><path d="M0 0c.093-2.494.729-4.488 1.157-6.883.16-.884.017-1.258.476-2.187.707-1.427.997-2.394.993-4.153-.009-1.33-.211-2.617-.193-4.006.007-1.69-.354-3.55-.767-5.14-.185-.782-.37-1.544-.555-2.315-.021.026-.029.042-.054.068.025-.396.042-.938-.022-1.207-.139-.425.838-.569.838-.569l2.293.569.828.113c-.29.055-.505.24-.58.833-.063.606.673 2.062 1.01 2.533-.951.698-.997 2.179-.88 3.4.005.058.224 2.098.282 2.65.055.58.168 1.721.168 1.721l.047 1.737.231 2.293S5.15-8.978 5.07-8.187C4.948-6.752 4.489-5.7 4.006-4.295c-.27.774-.576 2.293-.669 3.092-.144 1.409-.076 2.596-.707 3.849-.665 1.331-1.573 1.81-.551 3.501l-.829.522-.758.143-1.097.366-.779-.009.425-1.232C.791 4.927-.084 2.293 0 0" style="fill:#fff;fill-opacity:1;fill-rule:nonzero;stroke:none" transform="translate(652.276 264.028)"/></g></svg>