<svg xmlns="http://www.w3.org/2000/svg" width="376.66724mm" height="66.761581mm" viewBox="0 0 376.66724 66.761581"><g style="stroke-width:.236587"><g style="stroke-width:.236587"><path d="M0 0c-.463.02-.686-.243-.908-.849-.141-.423-.344-.545-.848-.565-.283 0-.607-.041-.789.04-.443.243-.625.768-1.373.97-.908.242-2.787-.081-2.787-1.656 0-1.595 1.879-1.919 2.787-1.677.748.203.93.727 1.373.97.182.08.506.04.789.04.504-.02.707-.141.848-.565.222-.606.445-.869.908-.848Zm10.543-12.238C8.967-10.946 7.311-9.331 6.24-7.694c-.201.322-.383.606-.564.867h-.889c.545-.747 3.09-4.2 5.756-6.503zm0 2.604v-.464a19.191 19.191 0 0 0-3.131 3.271h.504c.789-1.029 1.656-1.979 2.627-2.807m0 15.672H8.402v.929l.625.343-.019.122h-.93l-.019-.021V3.776l.019-.02.949.02-.019.101-.606.323v.929h2.141zm0 5.594c-.869.121-1.557-.303-1.879-1.191-.404-1.131.08-2.101 1.272-2.545.222-.061.425-.121.607-.142v.95l-.363.121c-.85.323-1.516.747-1.274 1.434.223.605.889.626 1.637.404zm0 1.899-.264-.303.082-.081.182.061zm0 5.695c-4.221-3.495-6.906-8.765-6.906-14.662 0-.768.039-1.515.119-2.262h.566c-.06.646-.101 1.272-.101 1.919 0 5.533 2.465 10.501 6.322 13.873zm0 4.341v-1.11c-1.01-1.131-2.041-2.242-2.828-2.868-1.736-1.353-4.141-4.584-4.746-5.877-.586-1.312-.323-1.797-.323-2.827 0-1.05.122-5.029-.101-6.119-.223-1.07-.707-2.504-.707-2.504l-.322.06s.806 1.918.806 3.11 0 6.644.061 7.452c.041.828.586 1.595 1.515 3.05.928 1.474 3.495 4.099 6.059 6.987l.586.646M1.758 1.878h8.785V.444L7.635.404C6.725.383 5.979.383 7.473.283c.242 0 .687 0 1.048-.021.567 0 1.254-.02 2.022-.04v-.02C9.674.182 8.785.141 9.311.08c.283-.019.726-.04 1.232-.04v-6.26H1.758c-.385 0-.688.323-.688.727v.303H.748c-.082 0-.141.08-.141.161V.686c0 .081.059.162.141.162h.322v.303c0 .404.303.727.688.727m8.785 5.876c.869-.101 1.574.304 1.896 1.192.405 1.131-.14 2.1-1.332 2.545-.201.06-.382.121-.564.141v-.969c.121-.04.221-.061.322-.101.869-.323 1.574-.747 1.334-1.454-.222-.586-.91-.606-1.656-.404zm0-2.625v.909h1.07c.039 0 .061.041.08.081l.121.242h.122V4.846h-.122l-.121.202a.154.154 0 0 1-.08.081zm0-4.927v.02c.182 0 .342-.02.525-.02zm2.1-13.975v-1.051c-.223.121-.424.242-.625.364-.487.323-.971.707-1.475 1.13v1.092a26.944 26.944 0 0 1 2.1-1.535m0 2.544v-.384c-.727.465-1.434.97-2.1 1.515v.464a19.914 19.914 0 0 1 2.1-1.595m0 23.932v-1.112a4.143 4.143 0 0 0-.405.304l-1.211 1.009c-.06.061-.142.121-.203.162-.039.04-.099.081-.14.122-.041.04-.08.02-.121.02h-.02v.323l.645.767.082-.081-.061-.222c0-.04 0-.081.02-.101a.933.933 0 0 1 .162-.141c.06-.061.121-.101.201-.162zm0 3.332v-.99c-.02.04-.061.06-.08.081-.061.041-.124.101-.184.141-.02.02-.059.02-.1 0l-.203-.1-.099.08zm0 4.685v-1.03a19.655 19.655 0 0 1-2.1-1.596v1.132c.666.545 1.373 1.05 2.1 1.494m0 4.826v-.767a98.772 98.772 0 0 1-2.1-2.322v1.11c.727.788 1.414 1.454 2.1 1.979m0-31.766h-2.1V.04c.727 0 1.533.021 2.1.04zm-2.1 8.098h2.1V.464l-2.1-.02zm3.978-16.721v-.869c-.667.262-1.292.565-1.878.888v1.051c.748-.506 1.414-.869 1.878-1.07m0 2.564v-.344c-.646.303-1.273.646-1.878 1.01v.384a16.867 16.867 0 0 1 1.878-1.05m0 25.022v-.626c-.324-.384-.767-.707-1.111-.727-.242-.02-.504.061-.767.201v1.112l.101-.081c.565-.485 1.07-.808 1.615-.142a.64.64 0 0 1 .162.263m0 1.454c-.06.081-.162.161-.263.242l-1.131.97c-.08.06-.141.101-.201.161-.061.041-.102.081-.143.121-.039.04-.039.081-.039.122v.161l-.082.081-.019-.02v-.99c.041-.02.06-.04.101-.081l1.192-.989c.261-.222.503-.465.585-.747zm0 3.211v-1.677a.838.838 0 0 0-.363.344c-.162.283-.162.586 0 .889.1.161.221.303.363.444m0 4.342v-1.01a21.334 21.334 0 0 1-1.878-1.05v1.03c.605.384 1.232.707 1.878 1.03m0 4.948v-.465a3.261 3.261 0 0 1-.767-.444c-.303-.222-.688-.586-1.111-1.01v.767a7.816 7.816 0 0 0 1.878 1.152m0-32.918h-1.878v6.3h.041c.666.021 1.232.081 1.332.102h.082c.16 0 .3 0 .423.02zm-1.878 8.098h1.878V.504c-.06 0-.123 0-.183-.02l-1.695-.02zm1.878 10.239v.626a.666.666 0 0 1 0 .485v.969c.282-.283.424-.545.485-.848.06-.384-.082-.767-.424-1.172l-.061-.06m1.374-27.446v-.868c-.465.141-.93.303-1.374.485v.869c.04-.021.081-.021.122-.041.242-.102.685-.263 1.252-.445m0 2.444v-.323c-.465.182-.93.363-1.374.585v.344c.444-.222.909-.424 1.374-.606m0 4.039v-.626l-.061.06a.912.912 0 0 0-.162.223l.182.363zm0 23.104v-.465c-.081-.021-.182-.061-.284-.081l-.384.646.101.04c.203-.1.385-.14.567-.14m0 3.917v-.464c-.485.06-1.01-.242-1.071-.626-.121-.626.565-.646 1.071-.626v-.768l-.567-.061c-.303-.04-.584-.019-.807.101v1.677c.161.141.342.283.545.404.141.081.586.263.829.363m0 4.14v-.969c-.465-.181-.93-.384-1.374-.606v1.01c.465.202.909.404 1.374.565m0 4.787v-.465a5.057 5.057 0 0 1-1.374-.404v.465c.444.202.909.343 1.374.404M14.521 1.878h1.374V-6.22h-1.374V.202c1.211.06.625.302 0 .302zm1.676-17.288v-.888c-.101.041-.203.06-.302.101v.868c.099-.019.201-.06.302-.081m0 2.405v-.304c-.101.02-.203.06-.302.101v.323c.099-.04.201-.081.302-.12m0 3.513v-.121c-.06 0-.101.02-.14.04-.063.04-.102.061-.162.101v.626l.039-.02c-.02-.162-.039-.283 0-.384a.489.489 0 0 1 .183-.222c.039 0 .061-.02.08-.02m0 23.81v-.424c-.101-.04-.203-.061-.302-.101v.465l.302.06m0 2.161v-.768c-.101 0-.203 0-.302-.02v.768c.06.02.099.02.14.02zm0 1.394v-.263a.912.912 0 0 1-.302.101v.464c.039 0 .08.02.099.02zm0 4.564v-.97l-.302-.121v.969l.302.122m0 4.706v-.465c-.101-.02-.203-.02-.302-.041v.465c.099.02.201.041.302.041m-.302-25.265h.302V.283c-.162 0-.302-.041-.302-.101 0-.061.14-.121.302-.121V-6.22h-.302zm.302 15.732v.263l.141-.284-.061-.019a.156.156 0 0 1-.08.04m.889-33.282v-.888c-.303.08-.606.182-.889.262v.888c.262-.08.565-.181.889-.262m0 2.363v-.303c-.303.101-.606.202-.889.303v.304c.283-.102.586-.203.889-.304m0 3.494v-.162l-.162.081.041.101c.041-.02.08-.02.121-.02m0 1.757v-.525l-.08.04a.622.622 0 0 1 .019.323.293.293 0 0 1-.181.202c-.061.04-.143.061-.203.04a.248.248 0 0 1-.161-.121c-.021-.04-.021-.08-.021-.121-.02-.04 0-.08 0-.101.021-.06.08-.161.162-.323a.878.878 0 0 0 .102-.182c.06-.101.099-.202.121-.283 0-.1-.022-.161-.061-.242a.47.47 0 0 0-.303-.283.467.467 0 0 0-.283.021v.121c.039-.02.1-.02.141 0 .082.02.142.08.182.141.019.081.041.142.019.202 0 .082-.059.202-.141.364a1.759 1.759 0 0 0-.201.424c0 .081 0 .161.061.262.06.121.14.202.262.243.121.02.242 0 .384-.061.061-.02.121-.081.182-.141m0 24.456v-2.02c-.121-.08-.264-.181-.424-.262-.142-.101-.303-.161-.465-.222v.424c.061.02.121.04.162.06.303.122.766.526.606.909-.143.343-.426.424-.768.424v.768c.303.02.625 0 .889-.081m0 6.322v-.949c-.303-.102-.606-.203-.889-.304v.97c.283.101.586.201.889.283m0 4.463v-.465c-.283 0-.586 0-.889-.04v.465c.283.04.586.04.889.04m-.889-25.305h.889V.323c-.061 0-.121-.061-.121-.141 0-.081.06-.142.121-.162v-6.24h-.889V.061c.162 0 .283.06.283.121 0 .06-.121.101-.283.101zm.889-10.461v.525c.06-.061.121-.121.182-.202l-.163-.323zm.525-7.209v-.889c-.183.039-.343.08-.525.121v.888c.162-.04.342-.08.525-.12m0 2.341v-.302c-.183.041-.343.101-.525.141v.303c.182-.062.342-.101.525-.142m0 4.645v-.807l-.06-.121c-.041-.101-.041-.162-.022-.223.022-.02.041-.04.082-.08v-.121l-.525.181v.162h.08c.041.02.082.081.121.181zm0 .546v-.141a.447.447 0 0 1-.101.06l.041.101zm0 24.254v-1.05a1.965 1.965 0 0 0-.525-.566v2.02c.221-.081.383-.202.525-.404m0 6.867v-.95c-.183-.04-.343-.1-.525-.14v.949c.182.06.342.1.525.141m0 4.282v-.445c-.162 0-.343.02-.525.02v.465c.08-.02.141-.02.221-.02.101-.02.203-.02.304-.02m-.525-25.265h.525V-6.22h-.525V.02h.019c.081 0 .163.081.163.162 0 .08-.082.141-.163.141h-.019zm.525 13.066v1.05-.04c.202-.303.202-.626.02-.949 0-.021-.02-.041-.02-.061m0-25.102v.121c.02-.021.039-.021.08-.041l-.041-.101zm.504-5.776v-.868c-.162.04-.342.08-.504.121v.889c.162-.041.323-.102.504-.142m0 2.343v-.303c-.181.039-.342.1-.504.141v.302c.162-.06.323-.1.504-.14m0 3.352v-.141l-.181.06.039.101h.021c.041-.02.08-.02.121-.02m0 1.797v-.161c-.041 0-.06 0-.08-.021-.041-.02-.082-.061-.121-.161l-.303-.828v.807l.039.121c.041.102.041.162.022.203 0 .04-.022.06-.061.081v.141zm0 31.444v-.949a3.748 3.748 0 0 1-.504-.142v.95c.162.06.323.1.504.141m0 4.08v-.465a3.203 3.203 0 0 1-.504.081v.445c.162-.021.342-.041.504-.061m-.504-25.204h.504V.303c-.342-.061-.261-.101 0-.121V-6.22h-.504zm.504-10.481c.041 0 .08 0 .141-.021l.041.101-.182.081zm.93-7.533v-.868c-.303.059-.627.121-.93.202v.868c.303-.062.606-.122.93-.202m0 2.342v-.282c-.303.039-.627.121-.93.182v.303c.303-.081.627-.143.93-.203m0 4.443v-.707l-.385.909-.221-.848c-.041-.121-.041-.202-.021-.262.021-.061.061-.102.143-.121h.039l-.039-.121-.446.121v.141c.02 0 .061.02.08.04a.726.726 0 0 1 .123.222l.262 1.01c-.019.061-.06.121-.101.182a.517.517 0 0 1-.122.1l.022.102.402-.122zm0 32.555v-.949c-.303-.061-.627-.121-.93-.202v.949c.303.081.627.142.93.202m0 3.716v-.485c-.363.081-.688.141-.869.182h-.061v.465c.303-.041.627-.102.93-.162m0-33.14h-.93V.182h.93zm-.93 8.098h.93V.363c-.182 0-.324-.02-.445-.02-.221-.02-.364-.04-.485-.04zm2.02-18.196v-.889c-.344.061-.707.122-1.09.203v.868l1.09-.182m0 2.343v-.283c-.364.06-.727.1-1.09.182v.282c.363-.081.726-.141 1.09-.181m0 4.079v-.081a.986.986 0 0 1 0-.343zm0 .829V-9.169c-.1 0-.16 0-.221-.04-.041-.02-.082-.082-.103-.203l-.282-1.049c-.019-.061-.019-.122-.041-.162 0-.061-.019-.101-.019-.141l-.143.02c-.019.06-.039.121-.06.181-.02.062-.061.142-.1.263l-.121.242v.707l.404-.929.242.929c.039.101.039.182 0 .223-.021.061-.082.08-.181.121l.039.101zm0 28.616v-1.03c-.16-.344-.344-.768-.444-1.131-.203-.747-.283-1.717.12-1.758.123 0 .224 0 .324.041v-.282c-.182-.102-.787-.324-.949.141-.202.484-.02 1.191.363 2.545.222.807.426 1.252.586 1.474m0 3.817v-.929c-.364-.062-.727-.122-1.09-.182v.949c.363.06.726.121 1.09.162m0 3.352v-.546c-.383.102-.768.182-1.09.263v.485a15.88 15.88 0 0 0 1.09-.202m0-32.938h-1.09V.182h1.09zm-1.09 8.098h1.09V.383c-.364 0-.768-.02-1.09-.02zm1.09 16.641v1.03c.121.181.222.222.303.222.181 0 .222-.263.101-.485-.06-.121-.223-.404-.404-.767m0-27.668v.082h.041zm.586-7.27v-.869c-.182.021-.383.062-.586.081v.889c.203-.041.385-.06.586-.101m0 2.382v-.281c-.182.02-.383.039-.586.06v.283c.203-.021.404-.041.586-.062m0 4.848v-.142l-.061-.06a.966.966 0 0 1-.201-.546c-.041-.262-.021-.484.08-.646a.414.414 0 0 1 .182-.222v-.141c-.061.02-.121.041-.182.06a.932.932 0 0 0-.242.243.698.698 0 0 0-.143.303l-.019.02v.424c.019.101.06.182.08.262.062.101.123.182.203.263.08.08.182.142.303.182m0 25.91V15.55c-.041.08-.08.161-.102.263a3.585 3.585 0 0 0-.424-.404c-.019 0-.041-.02-.06-.02v.282c.242.081.424.222.465.243-.02.222.019.504.121.807m0 6.705v-.929c-.182-.02-.383-.04-.586-.06v.929c.203.02.404.04.586.06m0 3.15v-.524c-.201.04-.383.08-.586.12v.546c.203-.04.404-.081.586-.142m0-32.796h-.586V.182c.203 0 .385.02.586.02zm-.586 8.098h.586V.404c-.182-.021-.383-.021-.586-.021ZM21.447-16.5v-.888c-.242.019-.484.06-.726.1v.869c.242-.02.484-.061.726-.081m0 2.403v-.262c-.242 0-.484.02-.726.041v.281l.726-.06m0 3.514v-.343a5.602 5.602 0 0 1-.261-.06h-.303c-.061 0-.102.02-.162.04v.141c.06-.04.121-.06.203-.06a.447.447 0 0 1 .322.06.55.55 0 0 1 .201.222m0 1.354v-.203l-.039.041a.443.443 0 0 1-.324.141.446.446 0 0 1-.363-.081v.142c.019 0 .019.02.019.02.143.041.264.041.405.041.082-.021.162-.041.242-.081.021 0 .041-.02.06-.02m0 26.92v-.404a1.54 1.54 0 0 1-.322-.505c-.121-.323-.121-.586-.121-.586l.443.364v-.223c-.162-.141-.302-.241-.404-.323a.877.877 0 0 1 .404-.403v-.344c-.099 0-.201 0-.302.02a.6.6 0 0 0-.424.263v1.171l.019.021c.121.383.424.747.707.949m0 5.796v-.929l-.726-.061v.929l.726.061m0 2.928v-.545l-.726.182v.524c.242-.04.484-.1.726-.161m0-32.635h-.727V.202h.727zm-.726 8.098h.727V.404h-.727zm.726 14.459v.223c.162.141.324.303.385.424.141.283.041.586-.162.485a1.544 1.544 0 0 1-.223-.182v.404c.283.222.586.303.748.161.364-.263-.082-.929-.506-1.292-.08-.081-.16-.142-.242-.223m0-1.07v.344a.714.714 0 0 1 .223-.041c.262 0 .484.081.586.182.099.101.162-.041 0-.162a1.536 1.536 0 0 0-.809-.323m0-24.699v.203a.617.617 0 0 0 .223-.122v-.363h-.102a.678.678 0 0 1-.121.282m0-1.494v.343c.022.02.022.041.041.061h.121l-.101-.383c-.02 0-.039 0-.061-.021m1.01-5.675v-.889c-.344.021-.666.061-1.01.102v.888c.324-.041.666-.081 1.01-.101m0 2.484v-.283c-.344 0-.686.021-1.01.041v.262c.324-.02.666-.02 1.01-.02m0 4.867v-.101c-.039-.02-.061-.02-.061-.02-.019-.02-.019-.041-.019-.081l-.022-.585h.102v-.121h-.102v-.526c0-.08.022-.161.063-.202.02 0 .02 0 .039-.019v-.142l-.646.02v.101c.101.021.162.04.203.061.039.04.06.121.06.222l.02 1.009c0 .122-.02.182-.061.222-.019.041-.08.061-.181.081v.081zm0 32.757v-.929c-.344 0-.686-.02-1.01-.02v.929c.324.02.666.02 1.01.02m0 2.665v-.504c-.344.06-.666.141-1.01.202v.545c.344-.081.688-.162 1.01-.243m0-32.392h-1.01V.202h1.01zm-1.01 8.098h1.01V.423c-.404-.019-.727-.019-1.01-.019Zm1.01-11.229v.101l.809-.02v-.383h-.102a.346.346 0 0 1-.141.221c-.082.041-.201.061-.384.061zm0-.807v.121h.102c.16 0 .263 0 .322.04.041.04.082.101.082.182h.1v-.586h-.122c0 .081-.019.142-.08.182-.039.04-.142.061-.302.061zm0-.889v.142a.529.529 0 0 1 .223-.041c.121 0 .222.041.322.081a.8.8 0 0 1 .223.282l.101-.04-.121-.445zm.949-5.595v-.908c-.302 0-.625.041-.949.06v.889c.305-.02.627-.041.949-.041m0 2.545v-.282c-.302 0-.625-.021-.949-.021v.283c.324 0 .647 0 .949.02m0 29.687v-.242a1.471 1.471 0 0 0-.504-.02c-.263.061-.445.242-.363.464.08.202.18 0 .322-.121.08-.101.303-.141.545-.081m0 2.141v-.303a.678.678 0 0 1-.363-.384c-.141-.282.08-.423.363-.484v-.344c-.181.02-.404.061-.564.162-.283.142-.385.525.06.99.141.161.323.282.504.363m0 5.756v-.929c-.302.02-.625.02-.949.02v.929c.324 0 .647 0 .949-.02m0 2.484v-.505c-.283.06-.625.121-.949.202v.504c.324-.08.647-.141.949-.201m0-32.191h-.949V.202c.305.02.627.02.949.02zm-.949 8.098h.949V.464c-.363-.02-.687-.02-.949-.041Zm.949 15.55v.303c.405.223.828.243.889-.061.082-.363-.1-.565-.201-.646-.121-.101-.203-.06-.143.04.121.183.121.445-.08.465a.726.726 0 0 1-.465-.101m0-2.08v.242a.938.938 0 0 1 .364.141c.384.243.263.505.019.485h-.383v.344c.121-.02.223-.02.344-.04.404-.021.666-.284.404-.728-.162-.262-.465-.403-.748-.444m1.252-31.99v-.948c-.383 0-.806.02-1.252.04v.908c.426-.02.848-.02 1.252 0m0 2.667v-.283c-.404-.06-.826-.081-1.252-.121v.282c.426.021.848.06 1.252.122m0 4.806v-1.777l-.242-.02-.02.101h.042c.08.02.121.04.16.06.019.041.019.101.019.182l-.119 1.03c-.021.081-.041.141-.082.161-.02.02-.102.02-.201.02v.081zm0 32.555v-.949c-.404.06-.826.101-1.252.121v.929c.426-.02.848-.061 1.252-.101m0 2.363v-.485c-.22.021-.443.061-.666.101-.16.02-.363.06-.586.101v.505c.465-.101.889-.182 1.252-.222m0-31.969h-1.252V.222h1.252zm-1.252 8.098h1.252V.525c-.463-.021-.888-.041-1.252-.061Zm1.252-12.824v1.797l.182-1.454a.474.474 0 0 1 .06-.141c.041-.041.102-.041.163-.041h.041l.019-.101zm1.213-5.635v-.95c-.141 0-.264-.019-.404-.019-.242-.02-.526-.02-.809-.04v.948c.405 0 .809.021 1.213.061m0 2.787v-.282a12.039 12.039 0 0 0-1.213-.182v.283c.405.04.809.1 1.213.181m0 3.252v-.202c-.021 0-.041-.02-.06-.041l-.163.061c.082.06.163.121.223.182m0 1.575v-.121c-.041.021-.082.021-.141 0-.082-.021-.123-.061-.162-.141a.443.443 0 0 1-.021-.283c.041-.122.08-.222.162-.283a.231.231 0 0 1 .162-.061v-.181a.5.5 0 0 0-.344.06c-.121.081-.181.202-.222.364a.484.484 0 0 0 .06.404.546.546 0 0 0 .344.242c.061 0 .102.02.162 0m0 24.376v-.646c-.244-.061-.506-.082-.728-.061v.121c.384.04.587.282.728.586m0 7.795v-.949c-.404.081-.808.141-1.213.182v.949l1.213-.182m0 2.423v-.545c-.424.061-.828.121-1.213.182v.485h.061c.283-.041.687-.081 1.152-.122m0-31.847h-1.213V.222h1.213zm-1.213 8.098h1.213V.565c-.445-.021-.85-.04-1.213-.04zm1.213-12.622v.202c.061.06.121.121.16.202a.885.885 0 0 1 .143.464.627.627 0 0 0-.143-.101 3.408 3.408 0 0 0-.121-.06h-.039v.181h.061a.15.15 0 0 1 .099.041c.041.02.082.04.143.081 0 .04 0 .081-.022.121 0 .02 0 .061-.019.101a.6.6 0 0 1-.162.343c-.02.041-.061.06-.1.081v.121c.1 0 .182-.04.281-.1a.896.896 0 0 0 .264-.466c.061-.222.02-.444-.08-.666a1.696 1.696 0 0 0-.465-.545m.647-5.756v-.929c-.223-.04-.446-.061-.647-.102v.95c.223.021.424.061.647.081m0 2.848v-.303c-.223-.041-.424-.082-.647-.121v.282c.223.041.424.082.647.142m0 4.624v-.201zm0 26.799v-2.564c-.143-.243-.385-.363-.647-.444v.646c.08.202.141.444.201.646zm0 5.292v-.949c-.223.04-.424.1-.647.141v.949c.223-.04.424-.101.647-.141m0 2.483v-.585c-.223.04-.446.081-.647.121v.545c.201-.02.424-.06.647-.081m0-31.766h-.647V.222h.647zm-.647 8.098h.646V.565h-.646zm1.192-18.297v-.889l-.545-.121v.929c.201.02.363.061.545.081m0 2.908v-.303a7.23 7.23 0 0 1-.545-.141v.303c.201.04.363.08.545.141m0 3.211v-.101l-.102.021c.041.019.08.06.102.08m0 1.697v-.142a.227.227 0 0 1-.163 0c-.06-.02-.101-.081-.121-.161-.041-.081-.019-.182 0-.283.039-.122.08-.202.162-.263.039-.04.08-.06.122-.06v-.182c-.102-.02-.204 0-.264.06-.121.061-.201.162-.262.323 0 .02-.019.041-.019.082v.201c.019.041.019.081.039.122a.544.544 0 0 0 .302.262.403.403 0 0 0 .204.041m0 27.606v-2.06l-.245-1.009a3.227 3.227 0 0 0-.261-.667c-.02-.02-.02-.04-.039-.06v2.564l.16.566c.021.081.041.162.06.223.022.06.041.201.061.241.019.101-.16.162-.223.223l.043.101zm0 3.918v-.949c-.182.04-.344.101-.545.142v.949c.201-.041.363-.082.545-.142m0 2.545v-.586c-.182.04-.364.06-.545.081v.585c.181-.02.363-.06.545-.08m0-31.686h-.545V.222h.545zm-.545 8.098h.545V.586c-.204 0-.364 0-.545-.021zm1.128-18.176v-.869c-.201-.04-.382-.1-.583-.141v.889c.201.041.382.081.583.121m0 2.949v-.303c-.201-.06-.382-.101-.583-.162v.303c.201.041.382.101.583.162m0 4.12c0 .04-.019.08-.019.101-.061.201-.16.343-.322.423-.082.061-.162.081-.242.102v-.142c.039-.02.06-.04.101-.061a.68.68 0 0 0 .18-.343c.021-.02.021-.06.041-.101v-.101c-.041-.04-.08-.061-.1-.101-.041-.02-.082-.04-.121-.04-.021-.02-.062-.02-.101-.02v-.182c.039 0 .06 0 .101.021l.121.06c.039.02.08.061.121.121a.792.792 0 0 0-.101-.485 1.135 1.135 0 0 0-.242-.323v-.101l.06-.02c.221.182.383.384.484.606.02.06.02.121.039.181zm0 .807v-.202l-.019.202zm0 24.255v-.647a1.803 1.803 0 0 0 0 .647m0 3.009v-.162c-.058 0-.121-.02-.121-.06a8.6 8.6 0 0 0-.08-.243c-.019-.08-.039-.141-.06-.222l-.322-1.212v2.06zm0 3.918v-.949c-.201.06-.382.1-.583.161v.949c.201-.04.382-.101.583-.161m0 2.625v-.606c-.201.04-.382.081-.583.101v.586c.201-.02.382-.061.583-.081m0-31.605h-.584V.222h.584zm-.583 8.098h.583V.586h-.583zm.583-11.512v.405a.652.652 0 0 0 0-.405m.102-6.643v-.849c-.039-.02-.059-.02-.102-.041v.869c.043 0 .063 0 .102.021m0 2.947v-.282c-.039-.02-.059-.02-.102-.04v.303c.043 0 .063.019.102.019m0 4.969v-.424l-.08-.021-.022.182v.202zm0 24.537v-1.293c-.039.101-.08.202-.102.303v.647c.022.121.063.222.102.343m0 2.646v-.142h-.102v.162zm0 3.917v-.968c-.039.02-.059.02-.102.04v.949c.043 0 .063-.021.102-.021m0 2.626v-.586h-.102v.606c.043 0 .063-.02.102-.02m0-31.585h-.102V.222h.102zm-.102 8.098h.102V.605c-.039 0-.059-.019-.102-.019zm.102 16.802v.142l.121-.041-.019-.101c-.02-.02-.061 0-.102 0m0-27.465v.424l.768.323.121-1.878-.223-.102-.019 1.718-.504-.243c-.061-.02-.082-.04-.102-.081-.019-.02-.019-.081-.041-.161m1.697-7.007v-.749a13.13 13.13 0 0 0-1.697-.585v.849c.566.12 1.152.281 1.697.485m0 3.089v-.323a14.938 14.938 0 0 0-1.697-.586v.282c.586.182 1.152.405 1.697.627m0 30.292v-.504c-.263-.182-.506-.505-.707-.889-.424-.727-.646-1.535-.08-1.858.281-.161.545-.121.787.06v-.524c-.302 0-.646.081-.97.262a1.857 1.857 0 0 0-.727.747v1.293c.041.121.102.263.182.384.384.666.929 1.01 1.515 1.029m0 4.545v-.969a21.84 21.84 0 0 1-1.697.606v.968a21.038 21.038 0 0 0 1.697-.605m0 2.928v-.586c-.586.121-1.15.202-1.697.303v.586c.566-.08 1.131-.182 1.697-.303m0-31.282h-1.697V.222c.607 0 1.172-.02 1.697-.02zm-1.697 8.098h1.697V.626c-.627-.021-1.211-.021-1.697-.021Zm3.191-17.004v-.727a19.171 19.171 0 0 0-1.494-.688v.749c.504.181 1.01.403 1.494.666m0 3.13v-.344c-.484-.242-.99-.484-1.494-.686v.323c.504.222 1.01.465 1.494.707m0 25.668v-1.676c-.222.363-.404.807-.343 1.09.041.202.162.404.343.586m0 3.211v-2.02c-.382-.605-.908-.969-1.494-.989v.524c.262.183.504.526.727.889.445.748.627 1.495.041 1.838-.264.162-.525.122-.768-.04v.504c.323 0 .647-.08.969-.282.223-.121.385-.263.525-.424m0 4.564v-1.01c-.484.263-.99.505-1.494.728v.969c.504-.202 1.01-.425 1.494-.687m0 3.271v-.545a7.75 7.75 0 0 1-.908.202c-.203.041-.385.081-.586.101v.586a22.78 22.78 0 0 0 1.494-.344m0-30.938h-1.494V.202c.545 0 1.03-.02 1.453-.041h.041zm-1.494 8.098h1.494V.646c-.525 0-1.029-.02-1.494-.02zm1.494 12.985c.02.02.02.041.041.081.424.727.403 1.414-.041 1.939zm3.454-27.546v-.908a19.006 19.006 0 0 0-3.454-2.262v.727c.262.14.526.302.768.464a26.554 26.554 0 0 1 2.686 1.979m0 3.09v-.465c-1.071-.868-2.221-1.656-3.454-2.282v.344a18.512 18.512 0 0 1 3.454 2.403m0 14.197v-.848c-.323.02-.586.161-.747.424-.183.303-.263.687-.263 1.192 0 .323.06.626.162 1.029h.685v-.1c-.363-.222-.462-.526-.503-.808-.041-.304.06-.848.445-.909.08 0 .16 0 .221.02m0 6.079V8.239a1.906 1.906 0 0 0-.405-.404c-.302-.242-.625-.464-.625-.706l-.101-.021-.082.324c-.119.443-.16.626.103.888.281.283.666.485.947.849.061.06.143.12.122.202l-.081.302-1.291-.343c-.062-.02-.082-.041-.082-.101v-.283l-.121-.04-.404 1.535.102.02.14-.162c.041-.04.061-.06.102-.06.06.02.14.04.222.06.081.02.163.041.262.081zm0 2.706V12.5c-.061-.04-.102-.081-.163-.12l-1.128-.768c-.446-.323-.789-.424-1.133-.404-.342.04-.666.262-.949.646-.02.041-.061.101-.081.142v1.676c.102.121.223.222.385.323l1.192.849.181.12c.061.041.121.081.16.121.022.02.041.061.022.101v.182l.101.061.727-1.051-.082-.08-.201.121c-.022.02-.061.02-.102 0-.039-.041-.099-.061-.162-.101-.039-.04-.121-.08-.18-.141l-1.132-.788c-.565-.404-.95-.747-.504-1.413.383-.546.969-.283 1.433.04l1.151.807c.082.041.142.102.183.142.061.04.119.06.16.101.042.02.042.06.02.101l-.02.202.081.081zm0 5.776v-1.11a19.452 19.452 0 0 1-3.454 2.382v1.01a18.61 18.61 0 0 0 3.454-2.282m0 3.332v-.949c-.041.04-.08.081-.122.121-1.433 1.394-1.777 2.06-3.332 2.504v.545c.809-.242 1.516-.505 1.918-.827.366-.283.911-.788 1.536-1.394m0-28.717h-3.454V.161c1.192-.04 2.364-.04 3.454-.04zm-3.454 8.098h3.454V.686c-1.17 0-2.364-.02-3.454-.04zM34.393 12.5v.889l.525-.747-.08-.06-.162.04c-.041.02-.061.02-.102 0-.041-.02-.101-.061-.16-.101zm.888-24.395v-.909c-.302-.283-.586-.526-.888-.787v.908c.302.263.605.525.888.788m0 3.13v-.505c-.302-.263-.586-.525-.888-.788v.465c.302.262.586.545.888.828m0 14.661V4.322c-.222-.323-.484-.566-.867-.566h-.021v.848c.423.081.566.606.789 1.131.039.06.058.121.099.161m0 5.029v-.969l-.767-.222c.101-.505.324-.889.767-.868v-.707c-.283.06-.484.262-.646.606-.08-.223-.141-.384-.242-.526v2.444l.869.242zm0 7.452v-1.151c-.302.283-.586.545-.888.829v1.11c.302-.243.586-.505.888-.788m0 3.231V20.7c-.342.323-.646.605-.888.848v.949c.283-.283.566-.586.888-.889m0-27.828h-.889V.121h.889zm-.888 8.098h.888V.707c-.302 0-.586-.021-.888-.021zM44.086 0c.465.02.687-.243.889-.849.142-.423.363-.545.869-.565.283 0 .605-.041.787.04.445.243.627.768 1.353.97.928.242 2.807-.081 2.807-1.656 0-1.595-1.879-1.919-2.807-1.677-.726.203-.908.727-1.353.97-.182.08-.504.04-.787.04-.506-.02-.727-.141-.869-.565-.202-.606-.424-.869-.889-.848zm-8.805 20.7c2.02-1.979 5.311-5.271 6.403-7.695 1.312-2.887 1.15-4.361 1.089-5.837-.06-1.473-.16-4.846-.16-4.846h.262a38 38 0 0 0 .121 2.827c0 1.414.383 1.858.102 4.14-.264 2.302-1.092 4.686-2.889 6.867-1.131 1.393-3.211 3.676-4.928 5.452zm0-3.474a18.412 18.412 0 0 0 5.373-13.005c0-.647-.041-1.273-.101-1.919h.564c.082.747.121 1.494.121 2.262 0 5.432-2.3 10.36-5.957 13.813zm0-9.067v.707c.061 0 .141.02.223.04.586.181.625.646.404 1.212l-.627-.162v.969c.061.02.141.041.203.06l.18.061c.041 0 .063.041.063.081l.019.202.102.041.463-1.717c.142-.586.203-1.131-.403-1.414-.244-.101-.445-.12-.627-.08m0-3.837v1.574c.182.344.424.566.809.566.303 0 .545-.141.707-.424.16-.263.24-.626.24-1.09 0-.162-.058-.708-.099-.929h-.647v.08c.545.263.647 1.071.283 1.374-.484.403-.808-.263-1.031-.687-.08-.161-.182-.323-.262-.464m0-13.592a20.865 20.865 0 0 1 2.182 2.443h-.506a19.285 19.285 0 0 0-1.676-1.938zm0-3.534v.909c2.666 2.504 3.535 4.604 3.696 5.068h.646a19.045 19.045 0 0 0-4.342-5.977m0 14.682h7.028a.72.72 0 0 0 .707-.727V.848h.324c.08 0 .14-.081.14-.162v-5.715c0-.081-.06-.161-.14-.161h-.324v-.303a.72.72 0 0 0-.707-.727h-7.028V.121c1.778.02 3.313.081 4.303.101C41.32.283 41.945.08 42.168-.909c.203-.99.264-2.201.303-2.767.041-.585.162-.181.162.465-.02.646-.102 2.261-.182 2.908-.08.646-.445.949-1.273 1.03-.424.02-2.989 0-5.897-.02z" style="fill:#005b34;fill-opacity:1;fill-rule:nonzero;stroke:none;stroke-width:.236587" transform="matrix(1.49111 0 0 -1.49111 300.932 40.533)"/></g><g style="stroke-width:.236587"><path d="M0 0v.528l.96.577c.192.143.336.191.336.383v14.837h-4.322l-1.44-2.785-.48-.096-.048 4.417.097.096h16.804l.048-.096V13.54l-.528-.096-1.585 2.881H5.521V1.488c0-.192.144-.288.336-.383L7.01.528V0Zm21.03 18.341v-1.343h-.146c-3.359 0-4.176-3.603-4.176-7.828 0-4.176 1.008-8.161 4.322-8.257V-.432h-.288c-5.33 0-8.403 3.601-8.403 9.22 0 5.76 3.265 9.409 8.691 9.553m9.987-.432h6.481v-.528l-.96-.48c-.193-.097-.336-.192-.336-.384V7.395c0-3.457.336-6.147 4.321-6.147 3.409 0 4.032 3.123 4.032 6.002v8.259c-.047.383-.047.672-.047 1.008 0 .192-.144.287-.337.384l-.96.432v.576h4.945v-.528l-.623-.528c-.144-.096-.289-.193-.289-.433-.047-.288-.047-.575-.047-.911V7.442c0-2.785-.576-4.513-1.681-5.858C44.364.24 42.587-.432 40.14-.432c-2.403 0-5.186.624-6.291 1.825-1.153 1.199-1.729 3.072-1.729 5.618v8.498c0 .336 0 .623-.047.911 0 .24-.097.337-.289.433l-.767.528zM21.03-.432V.913h.095c3.41 0 4.177 3.793 4.177 8.018 0 4.273-1.007 7.97-4.272 8.067v1.343h.239c5.282 0 8.45-3.408 8.45-8.978 0-5.761-3.216-9.65-8.689-9.795m58.384 11.091V8.978c-.529-.576-1.058-1.344-1.346-2.16-.526-1.345-.479-2.353-.479-2.353s.912.673 1.825 1.489v-.912a22.172 22.172 0 0 0-1.73-1.346c.384-.767 1.009-1.439 1.73-1.727V.577c-.384-.049-.817 0-1.249.047-1.248.193-1.969 1.009-2.209 2.209-.48-.624-1.296-1.345-1.776-1.681-.481-.335-3.409-1.632-4.226.481-.768 2.063-.047 4.945 1.585 10.611 1.585 5.665 2.929 7.057 3.698 7.057.719 0 .912-1.104.384-2.064-.529-1.008-2.642-4.801-3.505-7.874-.864-3.073-1.2-7.106.527-7.299 1.585-.143 3.072 1.057 3.265 1.202-.095.959.048 2.111.528 3.36.576 1.681 1.776 3.121 2.978 4.033m-21.511-.047c2.594-1.298 5.138-2.834 5.138-5.715 0-1.68-.72-2.976-2.161-3.841-1.393-.912-3.409-1.343-5.905-1.343-1.633 0-3.218.335-5.185.815v3.458h.48c1.056-1.777 2.641-2.305 4.129-2.498 1.488-.192 4.272.289 4.465 2.208.384 3.075-2.689 3.842-5.762 5.186-2.209.961-3.648 2.306-3.648 4.466 0 1.585.719 2.737 2.111 3.601 1.393.816 3.217 1.248 5.522 1.248.864 0 3.554-.336 4.658-.528v-3.217h-.336c-1.346 2.689-5.474 3.266-7.01 1.393-2.017-2.45 1.343-4.082 3.504-5.233m31.593-.674c.817-.095.817-1.15.337-1.919-.289-.433.095-.577.575-.144.384.335 1.153 1.152.864 2.688-.335 1.824-3.889.72-5.761-1.249-1.921-1.968-1.44-3.552-.289-4.176 1.154-.624 2.978-.673 3.986-.624.961.048 1.44-1.056-.145-2.017-1.487-.96-3.217-.816-3.792-.288-.577.481-1.008 1.344-1.345.481-.336-.865.432-1.681 1.585-1.873 1.152-.24 3.985.047 5.137 1.873 1.153 1.872.048 2.975-1.68 3.072-1.729.143-3.697.528-2.977 2.208.769 1.681 2.64 2.065 3.505 1.968m6.865 8.164h6.771v-.576c-.383-.145-1.536-.241-1.585-.673V2.786c0-1.345-.144-2.306-.432-3.601-.575-2.738-3.648-4.034-6.05-4.61l-.144.576c2.928 1.248 2.786 4.513 2.786 7.249v14.404c0 .481-.962.577-1.346.722zM79.414 5.042v.912c.672.576 1.345 1.249 1.584 1.728.576 1.153.144 2.449-.624 2.017-.336-.144-.624-.385-.96-.721v1.681c1.199.864 2.4 1.201 3.121.673 1.536-1.105-.337-3.89-2.113-5.427a52.383 52.383 0 0 0-1.008-.863m0-4.465v1.392c.289-.097.575-.192.864-.192 1.104 0 2.112.336 2.496.768.433.384.624-.145 0-.624-.48-.433-1.729-1.249-3.36-1.344m33.993 17.764v-1.343h-.144c-3.363 0-4.177-3.603-4.177-7.828 0-4.176 1.009-8.161 4.321-8.257V-.432h-.24c-5.377 0-8.45 3.601-8.45 9.22 0 5.76 3.265 9.409 8.69 9.553m9.794-.432h6.53v-.528l-.959-.48c-.193-.097-.335-.192-.335-.384-.051-.336-.051-.625-.051-1.008V7.395c0-3.457.338-6.147 4.322-6.147 3.408 0 4.033 3.123 4.033 6.002v8.259c0 .383 0 .672-.049 1.008 0 .192-.095.287-.336.384l-.912.432-.048.576h4.947v-.528l-.625-.528c-.143-.096-.287-.193-.287-.433v-.911c0-.384-.049-.769-.049-1.2V7.442c0-2.785-.529-4.513-1.68-5.858-1.152-1.344-2.93-2.016-5.377-2.016-2.4 0-5.138.624-6.291 1.825-1.152 1.199-1.728 3.072-1.728 5.618V16.42c0 .24-.143.337-.287.433l-.818.528zM113.407-.432V.913h.095c3.408 0 4.179 3.793 4.179 8.018 0 4.273-.961 7.97-4.274 8.067v1.343h.239c5.283 0 8.452-3.408 8.452-8.978 0-5.761-3.216-9.65-8.691-9.795m37.739 18.534v-1.393c-.817.192-1.729.192-2.69.095V9.506c.961-.047 1.873 0 2.69.193V7.106c-.096.097-.145.193-.241.289-.24.287-.431.864-.816.864h-1.633V1.488c0-.288.145-.432.338-.528l1.439-.432.047-.528h-7.968v.528l1.005.481c.194.096.338.191.338.432v15.363c0 .241-.095.385-.338.433l-1.005.336v.529zm17.621-7.49c2.591-1.298 5.185-2.834 5.185-5.715 0-1.68-.721-2.976-2.162-3.841-1.439-.912-3.406-1.343-5.953-1.343-1.633 0-3.215.335-5.184.815v3.458h.479c1.103-1.777 2.687-2.305 4.129-2.498 1.488-.192 4.273.289 4.511 2.208.338 3.075-2.734 3.842-5.759 5.186-2.256.961-3.649 2.306-3.649 4.466 0 1.585.672 2.737 2.065 3.601 1.39.816 3.215 1.248 5.521 1.248.863 0 3.6-.336 4.656-.528v-3.217h-.335c-1.346 2.689-5.426 3.266-6.963 1.393-2.063-2.45 1.298-4.082 3.459-5.233m-17.621-3.506v2.593c1.632.384 2.736 1.392 2.64 3.601-.049 1.968-1.057 3.025-2.64 3.409v1.393h.046c3.026 0 5.86-.433 6.387-3.793.481-3.026-1.008-4.946-4.225-5.521 2.016-1.25 2.833-2.258 3.649-4.274.816-1.873 1.488-3.746 2.641-3.986L159.69 0h-1.726c-2.305 0-3.266 0-4.178 1.633-.961 1.681-1.439 3.697-2.64 5.473" style="fill:#005b34;fill-opacity:1;fill-rule:nonzero;stroke:none;stroke-width:.236587" transform="matrix(1.49111 0 0 -1.49111 7.447 48.416)"/></g></g></svg>